<?xml version="1.0" encoding="UTF-8" standalone="no"?>
<!DOCTYPE svg PUBLIC "-//W3C//DTD SVG 20010904//EN"
              "http://www.w3.org/TR/2001/REC-SVG-20010904/DTD/svg10.dtd">

<svg xmlns="http://www.w3.org/2000/svg"
     width="1.66667in" height="1.66667in"
     viewBox="0 0 1000 1000">
  <path id="パス"
        fill="white" stroke="black" stroke-width="3"
        d="M 237.28,451.00
           C 237.86,451.00 238.16,450.71 238.16,450.12
             238.16,450.12 238.16,408.73 238.16,408.73
             238.16,407.33 238.66,406.12 239.69,405.09
             240.72,404.06 241.95,403.55 243.39,403.55
             244.83,403.55 246.04,404.06 247.03,405.09
             248.03,406.12 248.53,407.33 248.53,408.73
             248.53,408.73 248.53,460.83 248.53,460.83
             248.53,462.30 248.03,463.52 247.03,464.52
             246.04,465.52 244.81,466.02 243.34,466.02
             243.34,466.02 242.73,466.02 242.73,466.02
             241.44,466.02 240.35,465.57 239.47,464.69
             238.59,463.81 238.16,462.76 238.16,461.53
             238.16,461.18 237.98,461.00 237.62,461.00
             237.62,461.00 184.38,461.00 184.38,461.00
             184.02,461.00 183.84,461.18 183.84,461.53
             183.84,462.76 183.40,463.81 182.52,464.69
             181.64,465.57 180.55,466.02 179.27,466.02
             179.27,466.02 178.66,466.02 178.66,466.02
             177.19,466.02 175.95,465.52 174.95,464.52
             173.96,463.52 173.47,462.30 173.47,460.83
             173.47,460.83 173.47,408.73 173.47,408.73
             173.47,407.33 173.96,406.12 174.95,405.09
             175.95,404.06 177.17,403.55 178.61,403.55
             180.05,403.55 181.27,404.06 182.30,405.09
             183.33,406.12 183.84,407.33 183.84,408.73
             183.84,408.73 183.84,450.12 183.84,450.12
             183.84,450.71 184.13,451.00 184.72,451.00
             184.72,451.00 237.28,451.00 237.28,451.00 Z
           M 222.44,422.00
           C 223.02,422.00 223.31,421.70 223.31,421.08
             223.31,421.08 223.31,414.92 223.31,414.92
             223.31,414.31 223.02,414.00 222.44,414.00
             222.44,414.00 216.19,414.00 216.19,414.00
             215.60,414.00 215.31,414.31 215.31,414.92
             215.31,414.92 215.31,421.08 215.31,421.08
             215.31,421.70 215.60,422.00 216.19,422.00
             216.19,422.00 222.44,422.00 222.44,422.00 Z
           M 222.44,438.00
           C 223.02,438.00 223.31,437.70 223.31,437.09
             223.31,437.09 223.31,430.91 223.31,430.91
             223.31,430.30 223.02,430.00 222.44,430.00
             222.44,430.00 216.19,430.00 216.19,430.00
             215.60,430.00 215.31,430.30 215.31,430.91
             215.31,430.91 215.31,437.09 215.31,437.09
             215.31,437.70 215.60,438.00 216.19,438.00
             216.19,438.00 222.44,438.00 222.44,438.00 Z
           M 199.31,430.00
           C 198.73,430.00 198.44,430.30 198.44,430.91
             198.44,430.91 198.44,437.09 198.44,437.09
             198.44,437.70 198.73,438.00 199.31,438.00
             199.31,438.00 205.30,438.00 205.30,438.00
             205.88,438.00 206.17,437.70 206.17,437.09
             206.17,437.09 206.17,430.91 206.17,430.91
             206.17,430.30 205.88,430.00 205.30,430.00
             205.30,430.00 199.31,430.00 199.31,430.00 Z
           M 199.31,414.00
           C 198.73,414.00 198.44,414.31 198.44,414.92
             198.44,414.92 198.44,421.08 198.44,421.08
             198.44,421.70 198.73,422.00 199.31,422.00
             199.31,422.00 205.30,422.00 205.30,422.00
             205.88,422.00 206.17,421.70 206.17,421.08
             206.17,421.08 206.17,414.92 206.17,414.92
             206.17,414.31 205.88,414.00 205.30,414.00
             205.30,414.00 199.31,414.00 199.31,414.00 Z
           M 175.75,388.00
           C 175.75,388.00 246.06,388.00 246.06,388.00
             247.41,388.00 248.59,388.48 249.58,389.45
             250.58,390.41 251.08,391.58 251.08,392.95
             251.08,394.33 250.58,395.52 249.58,396.52
             248.59,397.51 247.41,398.00 246.06,398.00
             246.06,398.00 216.89,398.00 216.89,398.00
             216.30,398.00 216.02,398.29 216.02,398.86
             216.02,398.86 216.02,404.14 216.02,404.14
             216.02,404.71 216.30,405.00 216.89,405.00
             216.89,405.00 224.89,405.00 224.89,405.00
             226.99,405.00 228.79,405.77 230.28,407.30
             231.78,408.83 232.53,410.68 232.53,412.84
             232.53,412.84 232.53,439.16 232.53,439.16
             232.53,441.32 231.78,443.17 230.28,444.70
             228.79,446.23 226.99,447.00 224.89,447.00
             224.89,447.00 197.20,447.00 197.20,447.00
             195.10,447.00 193.30,446.23 191.80,444.70
             190.30,443.17 189.56,441.32 189.56,439.16
             189.56,439.16 189.56,412.84 189.56,412.84
             189.56,410.68 190.30,408.83 191.80,407.30
             193.30,405.77 195.10,405.00 197.20,405.00
             197.20,405.00 204.41,405.00 204.41,405.00
             204.99,405.00 205.28,404.71 205.28,404.14
             205.28,404.14 205.28,398.86 205.28,398.86
             205.28,398.29 204.99,398.00 204.41,398.00
             204.41,398.00 175.75,398.00 175.75,398.00
             174.41,398.00 173.23,397.51 172.23,396.52
             171.24,395.52 170.75,394.33 170.75,392.95
             170.75,391.58 171.24,390.41 172.23,389.45
             173.23,388.48 174.41,388.00 175.75,388.00 Z
           M 275.41,387.72
           C 275.88,386.38 276.75,385.38 278.05,384.73
             278.80,384.27 279.62,384.03 280.50,384.03
             280.97,384.03 281.44,384.12 281.91,384.30
             283.31,384.64 284.34,385.43 284.98,386.67
             285.34,387.37 285.52,388.10 285.52,388.86
             285.52,389.39 285.43,389.95 285.25,390.53
             283.84,394.46 282.23,398.41 280.41,402.39
             280.18,402.92 280.06,403.48 280.06,404.06
             280.06,404.06 280.06,461.20 280.06,461.20
             280.06,462.61 279.56,463.80 278.56,464.80
             277.57,465.80 276.37,466.30 274.95,466.30
             273.55,466.30 272.34,465.80 271.34,464.80
             270.35,463.80 269.86,462.61 269.86,461.20
             269.86,461.20 269.86,422.53 269.86,422.53
             269.86,422.41 269.80,422.32 269.69,422.27
             269.57,422.20 269.48,422.23 269.42,422.34
             269.02,422.88 268.63,423.43 268.28,424.02
             267.58,424.95 266.68,425.42 265.56,425.42
             265.38,425.42 265.18,425.40 264.94,425.34
             263.59,425.17 262.63,424.46 262.05,423.23
             261.34,421.83 260.98,420.36 260.98,418.83
             260.98,418.54 261.02,418.25 261.08,417.95
             261.19,416.08 261.77,414.41 262.83,412.94
             267.80,405.79 272.00,397.39 275.41,387.72 Z
           M 298.61,408.00
           C 298.02,408.00 297.73,408.29 297.73,408.88
             297.73,408.88 297.73,414.12 297.73,414.12
             297.73,414.71 298.02,415.00 298.61,415.00
             298.61,415.00 308.45,415.00 308.45,415.00
             309.04,415.00 309.33,414.71 309.33,414.12
             309.33,414.12 309.33,408.88 309.33,408.88
             309.33,408.29 309.04,408.00 308.45,408.00
             308.45,408.00 298.61,408.00 298.61,408.00 Z
           M 315.12,396.83
           C 315.25,396.65 315.27,396.47 315.17,396.28
             315.09,396.09 314.93,396.00 314.69,396.00
             314.69,396.00 303.00,396.00 303.00,396.00
             302.41,396.00 301.95,396.25 301.59,396.73
             300.43,398.29 299.49,399.50 298.78,400.36
             298.66,400.48 298.63,400.61 298.69,400.77
             298.75,400.92 298.87,401.00 299.05,401.00
             299.05,401.00 311.17,401.00 311.17,401.00
             311.82,401.00 312.32,400.79 312.67,400.36
             313.49,399.25 314.31,398.07 315.12,396.83 Z
           M 330.61,415.00
           C 331.19,415.00 331.48,414.71 331.48,414.12
             331.48,414.12 331.48,408.88 331.48,408.88
             331.48,408.29 331.19,408.00 330.61,408.00
             330.61,408.00 319.70,408.00 319.70,408.00
             319.12,408.00 318.83,408.29 318.83,408.88
             318.83,408.88 318.83,414.12 318.83,414.12
             318.83,414.71 319.12,415.00 319.70,415.00
             319.70,415.00 330.61,415.00 330.61,415.00 Z
           M 310.73,456.25
           C 311.91,455.20 312.55,453.15 312.67,450.09
             312.72,449.92 312.66,449.79 312.48,449.70
             312.32,449.61 312.17,449.62 312.05,449.75
             308.42,452.44 304.61,454.93 300.62,457.22
             300.51,457.27 300.47,457.36 300.50,457.48
             300.53,457.60 300.60,457.69 300.72,457.75
             302.71,457.92 304.61,458.00 306.42,458.00
             308.42,458.00 309.86,457.42 310.73,456.25 Z
           M 334.30,426.73
           C 335.29,425.86 336.46,425.37 337.81,425.25
             337.86,425.25 337.95,425.25 338.06,425.25
             339.24,425.25 340.33,425.66 341.33,426.48
             342.27,427.30 342.73,428.35 342.73,429.64
             342.73,430.87 342.27,431.90 341.33,432.72
             338.92,434.66 336.19,436.68 333.14,438.78
             332.67,439.14 332.59,439.57 332.89,440.09
             335.40,444.67 338.38,448.42 341.84,451.34
             342.91,452.23 343.52,453.38 343.69,454.78
             343.69,454.96 343.69,455.14 343.69,455.31
             343.69,456.48 343.30,457.53 342.55,458.47
             341.61,459.64 340.44,460.35 339.03,460.58
             338.74,460.64 338.45,460.67 338.16,460.67
             337.10,460.67 336.11,460.29 335.17,459.53
             326.91,451.97 320.96,439.75 317.33,422.88
             317.21,422.29 316.86,422.00 316.27,422.00
             316.27,422.00 315.66,422.00 315.66,422.00
             315.07,422.00 314.55,422.21 314.08,422.62
             313.37,423.22 312.38,423.96 311.09,424.84
             310.62,425.20 310.59,425.59 311.00,426.00
             314.22,428.91 316.77,432.27 318.64,436.09
             320.52,439.92 321.63,443.55 321.98,446.98
             322.10,448.06 322.16,449.12 322.16,450.19
             322.16,452.45 321.89,454.59 321.38,456.59
             320.61,459.56 319.41,461.79 317.77,463.27
             315.54,465.46 312.87,466.68 309.77,466.91
             309.54,466.97 309.30,467.00 309.06,467.00
             307.31,467.00 305.73,466.32 304.33,464.95
             302.68,463.52 301.36,461.66 300.36,459.36
             300.24,459.12 300.13,458.88 300.02,458.64
             299.72,458.16 299.31,458.07 298.78,458.38
             296.44,459.68 294.15,460.89 291.92,462.02
             291.22,462.32 290.49,462.47 289.73,462.47
             289.20,462.47 288.68,462.38 288.16,462.20
             286.91,461.79 285.89,461.02 285.08,459.89
             284.61,459.30 284.38,458.62 284.38,457.84
             284.38,457.54 284.43,457.25 284.55,456.95
             284.84,455.83 285.48,455.09 286.48,454.73
             290.75,453.07 295.02,451.02 299.27,448.59
             303.52,446.16 307.13,443.67 310.12,441.12
             310.59,440.71 310.71,440.23 310.47,439.70
             310.24,439.23 309.98,438.72 309.69,438.19
             309.45,437.66 309.07,437.57 308.55,437.92
             303.33,441.54 297.91,444.68 292.28,447.34
             291.63,447.65 291.02,447.80 290.44,447.80
             289.97,447.80 289.47,447.71 288.94,447.53
             287.88,447.17 287.00,446.48 286.30,445.48
             285.71,444.65 285.55,443.75 285.81,442.77
             286.08,441.79 286.69,441.15 287.62,440.86
             293.66,438.60 299.28,435.75 304.50,432.31
             305.02,432.02 305.08,431.64 304.67,431.16
             304.44,430.92 304.18,430.68 303.88,430.45
             303.47,430.04 303.00,429.98 302.47,430.27
             299.43,431.93 296.32,433.45 293.16,434.81
             292.39,435.11 291.66,435.25 290.97,435.25
             290.44,435.25 289.88,435.16 289.30,434.98
             288.00,434.63 286.95,433.92 286.12,432.84
             285.66,432.25 285.42,431.60 285.42,430.89
             285.42,430.65 285.45,430.39 285.52,430.09
             285.80,429.02 286.42,428.34 287.36,428.05
             291.87,426.51 296.18,424.64 300.28,422.44
             300.33,422.39 300.34,422.30 300.31,422.19
             300.29,422.06 300.22,422.00 300.11,422.00
             300.11,422.00 295.70,422.00 295.70,422.00
             293.60,422.00 291.80,421.26 290.30,419.77
             288.80,418.28 288.06,416.48 288.06,414.38
             288.06,414.38 288.06,409.38 288.06,409.38
             288.06,408.74 287.85,408.25 287.44,407.89
             287.44,407.83 287.41,407.80 287.36,407.80
             285.95,406.45 285.25,404.85 285.25,402.98
             285.25,401.17 285.92,399.65 287.27,398.42
             291.02,394.98 294.21,391.21 296.84,387.12
             297.72,385.84 298.83,384.84 300.19,384.14
             301.18,383.67 302.17,383.44 303.17,383.44
             303.58,383.44 303.99,383.46 304.41,383.52
             304.41,383.52 305.72,383.78 305.72,383.78
             306.60,383.96 307.25,384.46 307.66,385.28
             308.06,386.11 308.03,386.90 307.56,387.66
             307.38,387.89 307.45,388.00 307.75,388.00
             307.75,388.00 318.81,388.00 318.81,388.00
             318.81,387.95 318.84,387.92 318.91,387.92
             318.91,387.92 320.92,387.92 320.92,387.92
             321.05,387.92 321.16,387.89 321.28,387.83
             321.63,387.77 321.98,387.73 322.33,387.73
             323.10,387.73 323.80,387.95 324.44,388.36
             324.44,388.36 326.11,389.64 326.11,389.64
             326.99,390.32 327.55,391.20 327.78,392.30
             327.84,392.61 327.88,392.89 327.88,393.12
             327.88,393.92 327.66,394.65 327.25,395.33
             326.14,397.16 325.06,398.81 324.00,400.27
             323.88,400.45 323.85,400.62 323.91,400.78
             323.97,400.93 324.09,401.00 324.27,401.00
             324.27,401.00 334.03,401.00 334.03,401.00
             336.13,401.00 337.93,401.73 339.42,403.19
             340.92,404.64 341.67,406.38 341.67,408.42
             341.67,408.42 341.67,414.58 341.67,414.58
             341.67,416.62 340.92,418.37 339.42,419.83
             337.93,421.28 336.13,422.00 334.03,422.00
             334.03,422.00 327.00,422.00 327.00,422.00
             326.76,422.00 326.58,422.09 326.47,422.27
             326.35,422.43 326.32,422.64 326.38,422.88
             327.08,425.80 327.85,428.41 328.67,430.70
             328.79,430.93 328.94,431.08 329.14,431.14
             329.35,431.20 329.54,431.13 329.72,430.95
             331.36,429.50 332.89,428.09 334.30,426.73 Z
           M 355.28,415.50
           C 355.28,414.00 355.85,412.71 356.98,411.62
             358.13,410.54 359.52,410.00 361.16,410.00
             361.16,410.00 375.41,410.00 375.41,410.00
             375.41,410.00 375.67,408.59 375.67,408.59
             375.96,407.12 376.74,405.95 378.00,405.08
             379.26,404.20 380.68,403.84 382.25,404.02
             383.83,404.31 385.12,405.07 386.12,406.30
             387.00,407.41 387.41,408.65 387.36,410.00
             387.36,410.00 411.61,410.00 411.61,410.00
             413.25,410.00 414.66,410.51 415.83,411.53
             416.94,412.68 417.50,414.00 417.50,415.50
             417.50,417.00 416.93,418.29 415.78,419.38
             414.64,420.46 413.25,421.00 411.61,421.00
             411.61,421.00 385.59,421.00 385.59,421.00
             385.59,421.00 384.55,427.23 384.55,427.23
             384.55,427.23 411.61,427.23 411.61,427.23
             413.25,427.23 414.64,427.82 415.78,429.00
             416.93,430.17 417.50,431.60 417.50,433.30
             417.50,434.95 416.91,436.35 415.75,437.52
             414.63,438.70 413.25,439.28 411.61,439.28
             411.61,439.28 395.80,439.28 395.80,439.28
             395.80,439.28 395.70,439.72 395.70,439.72
             395.41,441.30 394.59,442.56 393.23,443.50
             391.89,444.44 390.40,444.76 388.77,444.47
             385.54,443.65 383.86,441.92 383.75,439.28
             383.75,439.28 376.89,439.28 376.89,439.28
             376.02,439.34 375.30,439.58 374.73,439.98
             374.18,440.39 373.77,440.88 373.50,441.44
             373.24,441.99 373.11,442.50 373.11,442.97
             373.11,443.55 373.24,444.12 373.50,444.69
             373.77,445.24 374.18,445.73 374.73,446.14
             375.30,446.55 376.02,446.75 376.89,446.75
             376.89,446.75 405.11,446.75 405.11,446.75
             406.74,446.75 408.13,447.34 409.28,448.52
             410.43,449.68 411.00,451.09 411.00,452.73
             411.00,454.43 410.41,455.87 409.23,457.03
             408.12,458.21 406.74,458.80 405.11,458.80
             405.11,458.80 378.56,458.80 378.56,458.80
             374.46,458.80 371.07,457.91 368.41,456.12
             365.75,454.34 363.85,452.31 362.70,450.05
             361.55,447.79 360.98,445.48 360.98,443.14
             360.98,440.80 361.57,438.50 362.73,436.25
             363.91,433.99 365.82,431.95 368.45,430.14
             369.57,429.38 370.86,428.77 372.33,428.30
             372.33,428.30 373.56,421.00 373.56,421.00
             373.56,421.00 361.16,421.00 361.16,421.00
             359.52,421.00 358.14,420.46 357.03,419.38
             355.86,418.29 355.28,417.00 355.28,415.50 Z
           M 451.42,406.97
           C 451.42,406.97 488.78,406.97 488.78,406.97
             490.41,406.97 491.82,407.53 493.00,408.64
             494.23,409.93 494.79,411.34 494.67,412.86
             494.67,412.86 491.86,433.52 491.86,433.52
             491.27,437.67 490.18,441.59 488.59,445.28
             486.89,448.98 484.54,452.11 481.52,454.66
             478.50,457.20 474.95,458.59 470.84,458.83
             470.84,458.83 462.77,458.83 462.77,458.83
             461.18,458.77 459.85,458.20 458.77,457.11
             457.68,456.03 457.11,454.70 457.05,453.11
             457.05,451.48 457.59,450.07 458.67,448.91
             459.75,447.73 461.12,447.11 462.77,447.05
             462.77,447.05 469.44,447.05 469.44,447.05
             471.66,446.93 473.61,446.09 475.28,444.50
             476.96,442.92 478.11,441.12 478.75,439.09
             479.39,437.07 479.86,434.86 480.16,432.45
             480.16,432.45 481.75,420.94 481.75,420.94
             481.93,419.53 481.43,418.80 480.25,418.75
             480.25,418.75 455.47,418.75 455.47,418.75
             454.88,421.27 454.09,423.67 453.09,425.95
             451.39,429.64 449.04,432.76 446.02,435.31
             442.99,437.87 439.44,439.26 435.34,439.48
             435.34,439.48 433.41,439.48 433.41,439.48
             431.82,439.43 430.49,438.87 429.41,437.78
             428.32,436.69 427.75,435.36 427.69,433.78
             427.69,432.14 428.23,430.73 429.31,429.56
             430.39,428.39 431.76,427.77 433.41,427.70
             433.41,427.70 433.94,427.70 433.94,427.70
             436.16,427.59 438.10,426.74 439.77,425.16
             441.44,423.57 442.60,421.77 443.25,419.75
             443.89,417.73 444.36,415.52 444.66,413.12
             444.66,413.12 444.66,412.69 444.66,412.69
             444.95,411.04 445.74,409.66 447.03,408.55
             448.32,407.50 449.79,406.97 451.42,406.97 Z
           M 515.83,405.56
           C 517.41,405.62 518.76,406.20 519.88,407.28
             520.99,408.37 521.58,409.70 521.64,411.28
             521.64,411.28 521.64,436.23 521.64,436.23
             521.29,439.76 519.35,441.66 515.83,441.95
             514.19,441.95 512.77,441.41 511.56,440.33
             510.36,439.25 509.77,437.88 509.77,436.23
             509.77,436.23 509.77,411.28 509.77,411.28
             509.83,409.64 510.44,408.27 511.61,407.19
             512.79,406.11 514.19,405.56 515.83,405.56 Z
           M 553.80,405.56
           C 555.38,405.62 556.73,406.20 557.84,407.28
             558.96,408.37 559.55,409.70 559.61,411.28
             559.61,411.28 559.61,433.52 559.61,433.52
             559.55,437.67 558.96,441.59 557.84,445.28
             556.68,448.98 554.76,452.11 552.09,454.66
             549.43,457.20 546.04,458.59 541.94,458.83
             541.94,458.83 536.31,458.83 536.31,458.83
             534.73,458.77 533.39,458.20 532.31,457.11
             531.23,456.03 530.66,454.70 530.59,453.11
             530.59,451.48 531.13,450.07 532.22,448.91
             533.30,447.73 534.66,447.11 536.31,447.05
             536.31,447.05 538.95,447.05 538.95,447.05
             541.17,446.93 543.02,446.09 544.48,444.50
             545.95,442.92 546.88,441.12 547.25,439.09
             547.63,437.07 547.80,434.86 547.73,432.45
             547.73,432.45 547.73,411.28 547.73,411.28
             547.80,409.64 548.41,408.27 549.58,407.19
             550.75,406.11 552.16,405.56 553.80,405.56 Z
           M 620.33,423.16
           C 620.33,423.16 614.36,441.97 614.36,441.97
             612.48,447.40 610.14,451.53 607.33,454.38
             604.52,457.21 601.47,458.75 598.19,459.00
             598.19,459.00 592.56,459.00 592.56,459.00
             591.27,458.94 590.18,458.45 589.30,457.52
             588.42,456.59 587.98,455.48 587.98,454.19
             587.98,452.77 588.41,451.57 589.25,450.58
             590.10,449.59 591.21,449.06 592.56,449.00
             592.56,449.00 595.72,449.00 595.72,449.00
             597.53,448.94 599.21,448.28 600.77,447.02
             602.33,445.76 603.52,444.31 604.33,442.67
             605.15,441.03 605.83,439.27 606.36,437.39
             606.36,437.39 611.55,420.08 611.55,420.08
             611.89,419.09 612.38,418.27 613.03,417.62
             613.68,416.98 614.64,416.66 615.94,416.66
             617.23,416.66 618.33,417.12 619.23,418.06
             620.14,419.00 620.59,420.14 620.59,421.48
             620.59,422.07 620.50,422.62 620.33,423.16 Z
           M 579.64,417.42
           C 580.92,417.42 582.00,417.87 582.88,418.75
             583.76,419.62 584.23,420.71 584.30,422.00
             584.30,422.00 584.30,436.33 584.30,436.33
             584.00,439.14 582.45,440.66 579.64,440.89
             578.35,440.89 577.22,440.45 576.25,439.58
             575.28,438.70 574.80,437.61 574.80,436.33
             574.80,436.33 574.80,422.00 574.80,422.00
             574.86,420.65 575.36,419.55 576.30,418.70
             577.23,417.85 578.35,417.42 579.64,417.42 Z
           M 593.70,417.42
           C 594.98,417.42 596.06,417.87 596.94,418.75
             597.82,419.62 598.30,420.71 598.36,422.00
             598.36,422.00 598.36,436.33 598.36,436.33
             598.07,439.14 596.52,440.66 593.70,440.89
             592.41,440.89 591.28,440.45 590.31,439.58
             589.34,438.70 588.86,437.61 588.86,436.33
             588.86,436.33 588.86,422.00 588.86,422.00
             588.92,420.65 589.42,419.55 590.36,418.70
             591.30,417.85 592.41,417.42 593.70,417.42 Z
           M 655.42,406.97
           C 655.42,406.97 692.78,406.97 692.78,406.97
             694.41,406.97 695.82,407.53 697.00,408.64
             698.23,409.93 698.79,411.34 698.67,412.86
             698.67,412.86 695.86,433.52 695.86,433.52
             695.27,437.67 694.18,441.59 692.59,445.28
             690.89,448.98 688.54,452.11 685.52,454.66
             682.50,457.20 678.95,458.59 674.84,458.83
             674.84,458.83 666.77,458.83 666.77,458.83
             665.18,458.77 663.85,458.20 662.77,457.11
             661.68,456.03 661.11,454.70 661.05,453.11
             661.05,451.48 661.59,450.07 662.67,448.91
             663.75,447.73 665.12,447.11 666.77,447.05
             666.77,447.05 673.44,447.05 673.44,447.05
             675.66,446.93 677.61,446.09 679.28,444.50
             680.96,442.92 682.11,441.12 682.75,439.09
             683.39,437.07 683.86,434.86 684.16,432.45
             684.16,432.45 685.75,420.94 685.75,420.94
             685.93,419.53 685.43,418.80 684.25,418.75
             684.25,418.75 659.47,418.75 659.47,418.75
             658.88,421.27 658.09,423.67 657.09,425.95
             655.39,429.64 653.04,432.76 650.02,435.31
             646.99,437.87 643.44,439.26 639.34,439.48
             639.34,439.48 637.41,439.48 637.41,439.48
             635.82,439.43 634.49,438.87 633.41,437.78
             632.32,436.69 631.75,435.36 631.69,433.78
             631.69,432.14 632.23,430.73 633.31,429.56
             634.39,428.39 635.76,427.77 637.41,427.70
             637.41,427.70 637.94,427.70 637.94,427.70
             640.16,427.59 642.10,426.74 643.77,425.16
             645.44,423.57 646.60,421.77 647.25,419.75
             647.89,417.73 648.36,415.52 648.66,413.12
             648.66,413.12 648.66,412.69 648.66,412.69
             648.95,411.04 649.74,409.66 651.03,408.55
             652.32,407.50 653.79,406.97 655.42,406.97 Z
           M 741.81,461.00
           C 738.76,461.00 735.75,460.65 732.80,459.95
             729.84,459.25 727.01,458.23 724.31,456.86
             721.61,455.48 719.22,453.66 717.14,451.39
             715.07,449.12 713.94,446.40 713.77,443.23
             713.77,443.23 713.77,411.52 713.77,411.52
             714.12,408.00 716.05,406.09 719.56,405.80
             721.21,405.80 722.63,406.34 723.83,407.42
             725.04,408.51 725.64,409.87 725.64,411.52
             725.64,411.52 725.64,440.52 725.64,440.52
             725.75,442.33 726.44,443.84 727.70,445.05
             728.96,446.25 730.37,447.20 731.92,447.91
             733.47,448.61 735.08,449.13 736.75,449.48
             738.41,449.83 740.10,450.00 741.81,450.00
             743.51,450.00 745.19,449.83 746.86,449.48
             748.52,449.13 750.13,448.61 751.69,447.91
             753.24,447.20 754.64,446.25 755.91,445.05
             757.16,443.84 757.86,442.33 757.98,440.52
             757.98,440.52 757.98,438.23 757.98,438.23
             758.27,434.71 760.18,432.81 763.69,432.52
             765.33,432.52 766.75,433.06 767.95,434.14
             769.15,435.23 769.75,436.59 769.75,438.23
             769.75,438.23 769.75,443.23 769.75,443.23
             769.57,446.40 768.46,449.12 766.41,451.39
             764.36,453.66 761.99,455.48 759.30,456.86
             756.60,458.23 753.77,459.25 750.81,459.95
             747.85,460.65 744.85,461.00 741.81,461.00 Z
           M 781.58,412.86
           C 781.58,411.21 782.14,409.82 783.28,408.69
             784.43,407.54 785.82,406.97 787.45,406.97
             787.45,406.97 833.52,406.97 833.52,406.97
             837.20,407.32 839.22,409.34 839.58,413.03
             839.58,414.68 838.97,416.04 837.77,417.12
             836.57,418.21 835.15,418.75 833.52,418.75
             833.52,418.75 818.66,418.75 818.66,418.75
             816.44,418.87 814.50,419.71 812.86,421.30
             811.16,422.88 809.87,424.68 808.98,426.70
             808.11,428.73 807.55,430.79 807.33,432.89
             807.09,435.01 807.22,437.09 807.72,439.14
             808.22,441.20 809.41,443.00 811.31,444.55
             813.22,446.10 815.29,446.93 817.52,447.05
             817.52,447.05 828.23,447.05 828.23,447.05
             831.93,447.40 833.96,449.42 834.31,453.11
             834.25,454.76 833.63,456.12 832.45,457.20
             831.29,458.29 829.88,458.83 828.23,458.83
             828.23,458.83 818.14,458.83 818.14,458.83
             811.63,458.59 806.76,457.02 803.53,454.12
             800.31,451.22 798.05,447.92 796.77,444.23
             795.48,440.55 795.05,436.77 795.45,432.89
             795.98,427.15 797.77,422.73 800.81,419.62
             801.11,419.34 801.44,419.04 801.78,418.75
             801.78,418.75 787.45,418.75 787.45,418.75
             785.82,418.75 784.44,418.16 783.33,416.98
             782.16,415.87 781.58,414.50 781.58,412.86 Z
           M 130.69,543.94
           C 130.69,542.29 131.26,540.90 132.41,539.77
             133.55,538.62 134.94,538.05 136.58,538.05
             136.58,538.05 153.45,538.05 153.45,538.05
             153.45,538.05 153.45,509.75 153.45,509.75
             153.45,509.75 136.58,509.75 136.58,509.75
             134.94,509.75 133.57,509.16 132.45,507.98
             131.27,506.87 130.69,505.50 130.69,503.86
             130.69,502.21 131.26,500.82 132.41,499.69
             133.55,498.54 134.94,497.97 136.58,497.97
             136.58,497.97 182.11,497.97 182.11,497.97
             183.74,497.97 185.15,498.53 186.33,499.64
             187.44,500.81 188.00,502.21 188.00,503.86
             188.00,505.50 187.43,506.89 186.28,508.03
             185.13,509.18 183.74,509.75 182.11,509.75
             182.11,509.75 165.33,509.75 165.33,509.75
             165.33,509.75 165.33,538.05 165.33,538.05
             165.33,538.05 182.11,538.05 182.11,538.05
             183.74,538.05 185.15,538.61 186.33,539.72
             187.44,540.89 188.00,542.29 188.00,543.94
             188.00,545.57 187.43,546.96 186.28,548.11
             185.13,549.26 183.74,549.83 182.11,549.83
             182.11,549.83 136.58,549.83 136.58,549.83
             134.94,549.83 133.57,549.24 132.45,548.06
             131.27,546.95 130.69,545.57 130.69,543.94 Z
           M 217.38,549.83
           C 212.22,549.65 208.32,548.44 205.69,546.19
             203.05,543.93 201.14,541.38 199.97,538.53
             198.80,535.69 198.22,532.80 198.22,529.88
             198.22,526.82 198.79,523.88 199.92,521.05
             201.07,518.20 202.97,515.66 205.64,513.41
             208.30,511.15 211.69,509.98 215.80,509.92
             215.80,509.92 249.20,509.92 249.20,509.92
             250.84,509.92 252.21,510.51 253.33,511.67
             254.49,512.79 255.08,514.17 255.08,515.81
             255.08,517.45 254.50,518.84 253.36,519.98
             252.22,521.13 250.84,521.70 249.20,521.70
             249.20,521.70 215.45,521.70 215.45,521.70
             214.34,521.70 213.37,522.16 212.55,523.06
             211.72,523.97 211.12,525.03 210.73,526.23
             210.36,527.43 210.17,528.62 210.17,529.78
             210.17,531.01 210.36,532.23 210.73,533.44
             211.12,534.64 211.72,535.69 212.55,536.59
             213.37,537.50 214.34,537.98 215.45,538.05
             215.45,538.05 249.20,538.05 249.20,538.05
             250.84,538.05 252.22,538.62 253.36,539.77
             254.50,540.90 255.08,542.29 255.08,543.94
             255.08,545.57 254.49,546.95 253.33,548.06
             252.21,549.24 250.84,549.83 249.20,549.83
             249.20,549.83 217.38,549.83 217.38,549.83 Z
           M 284.73,549.83
           C 279.58,549.65 275.68,548.44 273.05,546.19
             270.41,543.93 268.50,541.38 267.33,538.53
             266.16,535.69 265.58,532.80 265.58,529.88
             265.58,526.82 266.14,523.88 267.28,521.05
             268.43,518.20 270.33,515.66 273.00,513.41
             275.66,511.15 279.05,509.98 283.16,509.92
             283.16,509.92 311.62,509.92 311.62,509.92
             315.73,509.98 319.11,511.15 321.78,513.41
             324.45,515.66 326.35,518.20 327.48,521.05
             328.63,523.88 329.20,526.82 329.20,529.88
             329.20,532.80 328.61,535.69 327.44,538.53
             326.27,541.38 324.37,543.93 321.73,546.19
             319.10,548.44 315.20,549.65 310.05,549.83
             310.05,549.83 284.73,549.83 284.73,549.83 Z
           M 282.80,521.70
           C 281.68,521.70 280.71,522.16 279.89,523.06
             279.08,523.97 278.48,525.03 278.09,526.23
             277.72,527.43 277.53,528.62 277.53,529.78
             277.53,531.01 277.72,532.23 278.09,533.44
             278.48,534.64 279.08,535.69 279.89,536.59
             280.71,537.50 281.68,537.98 282.80,538.05
             282.80,538.05 311.98,538.05 311.98,538.05
             313.09,537.98 314.05,537.50 314.88,536.59
             315.70,535.69 316.30,534.64 316.67,533.44
             317.05,532.23 317.25,531.01 317.25,529.78
             317.25,528.62 317.05,527.43 316.67,526.23
             316.30,525.03 315.70,523.97 314.88,523.06
             314.05,522.16 313.09,521.70 311.98,521.70
             311.98,521.70 282.80,521.70 282.80,521.70 Z
           M 369.58,509.00
           C 372.62,509.00 375.62,509.35 378.58,510.05
             381.54,510.75 384.36,511.78 387.06,513.16
             389.76,514.52 392.14,516.34 394.22,518.62
             396.30,520.90 397.43,523.61 397.61,526.77
             397.61,526.77 397.61,545.50 397.61,545.50
             397.25,549.01 395.32,550.91 391.81,551.20
             390.16,551.20 388.74,550.66 387.55,549.58
             386.35,548.50 385.75,547.14 385.75,545.50
             385.75,545.50 385.75,529.50 385.75,529.50
             385.63,527.68 384.95,526.17 383.69,524.97
             382.43,523.77 381.02,522.82 379.47,522.12
             377.91,521.42 376.30,520.89 374.62,520.53
             372.96,520.18 371.27,520.00 369.58,520.00
             367.88,520.00 366.19,520.18 364.52,520.53
             362.85,520.89 361.24,521.42 359.69,522.12
             358.13,522.82 356.73,523.77 355.47,524.97
             354.21,526.17 353.52,527.68 353.41,529.50
             353.41,529.50 353.41,545.50 353.41,545.50
             353.11,549.01 351.21,550.91 347.69,551.20
             346.05,551.20 344.63,550.66 343.42,549.58
             342.22,548.50 341.62,547.14 341.62,545.50
             341.62,545.50 341.62,526.77 341.62,526.77
             341.80,523.61 342.91,520.90 344.97,518.62
             347.02,516.34 349.39,514.52 352.08,513.16
             354.77,511.78 357.60,510.75 360.56,510.05
             363.52,509.35 366.52,509.00 369.58,509.00 Z
           M 410.28,506.50
           C 410.28,505.00 410.85,503.71 411.98,502.62
             413.13,501.54 414.52,501.00 416.16,501.00
             416.16,501.00 430.41,501.00 430.41,501.00
             430.41,501.00 430.67,499.59 430.67,499.59
             430.96,498.12 431.74,496.95 433.00,496.08
             434.26,495.20 435.68,494.84 437.25,495.02
             438.83,495.31 440.12,496.07 441.12,497.30
             442.00,498.41 442.41,499.65 442.36,501.00
             442.36,501.00 466.61,501.00 466.61,501.00
             468.25,501.00 469.66,501.51 470.83,502.53
             471.94,503.68 472.50,505.00 472.50,506.50
             472.50,508.00 471.93,509.29 470.78,510.38
             469.64,511.46 468.25,512.00 466.61,512.00
             466.61,512.00 440.59,512.00 440.59,512.00
             440.59,512.00 439.55,518.23 439.55,518.23
             439.55,518.23 466.61,518.23 466.61,518.23
             468.25,518.23 469.64,518.82 470.78,520.00
             471.93,521.17 472.50,522.60 472.50,524.30
             472.50,525.95 471.91,527.35 470.75,528.52
             469.63,529.70 468.25,530.28 466.61,530.28
             466.61,530.28 450.80,530.28 450.80,530.28
             450.80,530.28 450.70,530.72 450.70,530.72
             450.41,532.30 449.59,533.56 448.23,534.50
             446.89,535.44 445.40,535.76 443.77,535.47
             440.54,534.65 438.86,532.92 438.75,530.28
             438.75,530.28 431.89,530.28 431.89,530.28
             431.02,530.34 430.30,530.58 429.73,530.98
             429.18,531.39 428.77,531.88 428.50,532.44
             428.24,532.99 428.11,533.50 428.11,533.97
             428.11,534.55 428.24,535.12 428.50,535.69
             428.77,536.24 429.18,536.73 429.73,537.14
             430.30,537.55 431.02,537.75 431.89,537.75
             431.89,537.75 460.11,537.75 460.11,537.75
             461.74,537.75 463.13,538.34 464.28,539.52
             465.43,540.68 466.00,542.09 466.00,543.73
             466.00,545.43 465.41,546.87 464.23,548.03
             463.12,549.21 461.74,549.80 460.11,549.80
             460.11,549.80 433.56,549.80 433.56,549.80
             429.46,549.80 426.07,548.91 423.41,547.12
             420.75,545.34 418.85,543.31 417.70,541.05
             416.55,538.79 415.98,536.48 415.98,534.14
             415.98,531.80 416.57,529.50 417.73,527.25
             418.91,524.99 420.82,522.95 423.45,521.14
             424.57,520.38 425.86,519.77 427.33,519.30
             427.33,519.30 428.56,512.00 428.56,512.00
             428.56,512.00 416.16,512.00 416.16,512.00
             414.52,512.00 413.14,511.46 412.03,510.38
             410.86,509.29 410.28,508.00 410.28,506.50 Z
           M 500.09,478.81
           C 500.68,477.46 501.64,476.46 503.00,475.81
             503.76,475.47 504.52,475.30 505.28,475.30
             505.86,475.30 506.42,475.39 506.95,475.56
             508.30,476.03 509.26,476.88 509.84,478.11
             510.20,478.81 510.38,479.48 510.38,480.12
             510.38,480.77 510.23,481.39 509.94,481.97
             508.00,486.37 506.01,490.44 503.97,494.19
             503.73,494.66 503.61,495.18 503.61,495.77
             503.61,495.77 503.61,552.55 503.61,552.55
             503.61,553.95 503.11,555.15 502.11,556.14
             501.12,557.14 499.92,557.64 498.52,557.64
             497.11,557.64 495.91,557.14 494.91,556.14
             493.91,555.15 493.42,553.95 493.42,552.55
             493.42,552.55 493.42,511.42 493.42,511.42
             493.42,511.30 493.34,511.21 493.19,511.16
             493.04,511.09 492.94,511.12 492.89,511.23
             492.13,512.23 491.39,513.15 490.69,513.97
             489.93,514.91 488.96,515.38 487.80,515.38
             487.55,515.38 487.32,515.34 487.09,515.28
             485.69,515.05 484.63,514.29 483.92,513.00
             483.22,511.71 482.88,510.36 482.88,508.95
             482.88,508.60 482.90,508.22 482.95,507.81
             483.19,506.05 483.89,504.47 485.06,503.06
             491.16,495.98 496.18,487.90 500.09,478.81 Z
           M 524.78,486.95
           C 524.20,486.95 523.91,487.25 523.91,487.84
             523.91,487.84 523.91,498.12 523.91,498.12
             523.91,498.71 524.20,499.00 524.78,499.00
             524.78,499.00 549.41,499.00 549.41,499.00
             549.99,499.00 550.28,498.71 550.28,498.12
             550.28,498.12 550.28,487.84 550.28,487.84
             550.28,487.25 549.99,486.95 549.41,486.95
             549.41,486.95 524.78,486.95 524.78,486.95 Z
           M 560.56,527.00
           C 560.56,527.00 548.27,527.00 548.27,527.00
             548.09,527.00 547.95,527.08 547.86,527.23
             547.77,527.38 547.79,527.54 547.91,527.70
             552.19,533.80 557.31,539.04 563.28,543.44
             564.39,544.32 565.04,545.47 565.22,546.88
             565.22,547.05 565.22,547.23 565.22,547.39
             565.22,548.63 564.80,549.72 563.98,550.66
             562.88,551.82 561.56,552.52 560.03,552.77
             559.80,552.82 559.57,552.84 559.33,552.84
             558.10,552.84 556.99,552.44 556.00,551.62
             551.13,547.28 546.68,542.04 542.64,535.89
             542.58,535.77 542.48,535.73 542.36,535.80
             542.24,535.86 542.19,535.95 542.19,536.06
             542.19,536.06 542.19,553.03 542.19,553.03
             542.19,554.49 541.66,555.74 540.61,556.80
             539.55,557.86 538.28,558.39 536.78,558.39
             535.29,558.39 534.02,557.86 532.97,556.80
             531.91,555.74 531.39,554.49 531.39,553.03
             531.39,553.03 531.39,536.50 531.39,536.50
             531.39,536.39 531.33,536.30 531.20,536.23
             531.09,536.17 530.97,536.20 530.86,536.33
             526.64,542.36 521.86,547.48 516.53,551.70
             515.53,552.41 514.47,552.77 513.36,552.77
             513.02,552.77 512.70,552.73 512.41,552.67
             510.88,552.44 509.58,551.71 508.53,550.47
             507.77,549.59 507.39,548.57 507.39,547.39
             507.39,547.23 507.39,547.02 507.39,546.78
             507.57,545.38 508.24,544.29 509.41,543.53
             515.74,539.31 521.19,534.04 525.77,527.70
             525.88,527.54 525.89,527.38 525.80,527.23
             525.71,527.08 525.58,527.00 525.41,527.00
             525.41,527.00 512.66,527.00 512.66,527.00
             511.31,527.00 510.17,526.51 509.23,525.52
             508.30,524.53 507.83,523.36 507.83,522.00
             507.83,520.65 508.30,519.48 509.23,518.48
             510.17,517.50 511.31,517.00 512.66,517.00
             512.66,517.00 530.50,517.00 530.50,517.00
             531.09,517.00 531.39,516.71 531.39,516.12
             531.39,516.12 531.39,509.88 531.39,509.88
             531.39,509.29 531.10,509.00 530.52,509.00
             530.52,509.00 521.38,509.00 521.38,509.00
             519.26,509.00 517.45,508.26 515.95,506.77
             514.46,505.27 513.72,503.46 513.72,501.34
             513.72,501.34 513.72,485.80 513.72,485.80
             513.72,483.68 514.46,481.88 515.95,480.39
             517.45,478.89 519.25,478.14 521.36,478.14
             521.36,478.14 553.36,478.14 553.36,478.14
             555.46,478.14 557.26,478.89 558.75,480.39
             560.25,481.88 561.00,483.68 561.00,485.80
             561.00,485.80 561.00,501.34 561.00,501.34
             561.00,503.46 560.25,505.27 558.75,506.77
             557.26,508.26 555.46,509.00 553.36,509.00
             553.36,509.00 543.06,509.00 543.06,509.00
             542.48,509.00 542.19,509.29 542.19,509.88
             542.19,509.88 542.19,516.12 542.19,516.12
             542.19,516.71 542.48,517.00 543.08,517.00
             543.08,517.00 560.56,517.00 560.56,517.00
             561.91,517.00 563.05,517.50 563.98,518.48
             564.92,519.48 565.39,520.65 565.39,522.00
             565.39,523.36 564.92,524.53 563.98,525.52
             563.05,526.51 561.91,527.00 560.56,527.00 Z
           M 650.45,495.00
           C 650.45,495.00 609.06,495.00 609.06,495.00
             608.47,495.00 608.05,495.27 607.83,495.80
             604.77,502.01 601.35,507.75 597.55,513.02
             597.19,513.55 597.02,514.11 597.02,514.69
             597.02,514.69 597.02,551.52 597.02,551.52
             597.02,552.98 596.48,554.24 595.42,555.30
             594.37,556.35 593.10,556.88 591.61,556.88
             590.12,556.88 588.84,556.35 587.78,555.30
             586.73,554.24 586.20,552.98 586.20,551.52
             586.20,551.52 586.20,526.64 586.20,526.64
             586.20,526.46 586.13,526.34 585.98,526.25
             585.84,526.17 585.71,526.18 585.59,526.30
             584.71,527.06 583.83,527.79 582.95,528.48
             582.13,529.13 581.22,529.45 580.23,529.45
             579.82,529.45 579.41,529.40 579.00,529.28
             577.53,528.93 576.45,528.08 575.75,526.73
             575.16,525.73 574.88,524.71 574.88,523.66
             574.88,523.19 574.93,522.72 575.05,522.25
             575.40,520.67 576.19,519.38 577.42,518.39
             584.33,512.77 590.30,505.20 595.34,495.70
             595.46,495.53 595.46,495.37 595.34,495.22
             595.23,495.07 595.08,495.00 594.91,495.00
             594.91,495.00 581.20,495.00 581.20,495.00
             579.80,495.00 578.58,494.51 577.55,493.52
             576.52,492.52 576.02,491.34 576.02,489.97
             576.02,488.59 576.52,487.42 577.55,486.45
             578.58,485.48 579.80,485.00 581.20,485.00
             581.20,485.00 599.48,485.00 599.48,485.00
             600.07,485.00 600.45,484.71 600.62,484.12
             601.27,482.54 601.88,480.84 602.47,479.03
             602.94,477.45 603.88,476.25 605.28,475.42
             606.22,474.84 607.21,474.55 608.27,474.55
             608.73,474.55 609.23,474.61 609.77,474.72
             611.29,475.07 612.46,475.95 613.28,477.36
             613.75,478.18 613.98,479.03 613.98,479.91
             613.98,480.49 613.86,481.07 613.62,481.66
             613.33,482.54 613.04,483.37 612.75,484.12
             612.63,484.36 612.63,484.56 612.75,484.73
             612.86,484.91 613.04,485.00 613.28,485.00
             613.28,485.00 650.45,485.00 650.45,485.00
             651.86,485.00 653.07,485.48 654.09,486.45
             655.12,487.42 655.64,488.59 655.64,489.97
             655.64,491.34 655.12,492.52 654.09,493.52
             653.07,494.51 651.86,495.00 650.45,495.00 Z
           M 651.95,525.00
           C 653.36,525.00 654.54,525.50 655.50,526.50
             656.47,527.49 656.95,528.67 656.95,530.05
             656.95,531.42 656.47,532.59 655.50,533.56
             654.54,534.52 653.36,535.00 651.95,535.00
             651.95,535.00 636.83,535.00 636.83,535.00
             636.24,535.00 635.95,535.29 635.95,535.88
             635.95,535.88 635.95,546.25 635.95,546.25
             635.95,549.00 635.61,551.11 634.94,552.58
             634.27,554.05 633.00,555.19 631.12,556.00
             628.89,556.94 625.32,557.47 620.39,557.59
             620.34,557.59 620.28,557.59 620.22,557.59
             618.81,557.59 617.52,557.09 616.36,556.09
             615.12,555.09 614.27,553.83 613.80,552.31
             613.68,551.91 613.62,551.52 613.62,551.17
             613.62,550.35 613.89,549.62 614.42,548.97
             615.12,547.98 616.05,547.48 617.23,547.48
             617.29,547.48 617.31,547.48 617.31,547.48
             618.55,547.48 619.61,547.48 620.48,547.48
             621.65,547.48 622.55,547.45 623.20,547.39
             623.96,547.39 624.47,547.29 624.73,547.09
             625.00,546.89 625.14,546.52 625.14,545.98
             625.14,545.98 625.14,535.88 625.14,535.88
             625.14,535.29 624.85,535.00 624.27,535.00
             624.27,535.00 607.39,535.00 607.39,535.00
             606.04,535.00 604.86,534.52 603.86,533.56
             602.87,532.59 602.38,531.42 602.38,530.05
             602.38,528.67 602.87,527.49 603.86,526.50
             604.86,525.50 606.04,525.00 607.39,525.00
             607.39,525.00 624.44,525.00 624.44,525.00
             624.91,525.00 625.14,524.78 625.14,524.34
             625.14,524.34 625.14,521.00 625.14,521.00
             625.14,520.19 625.45,519.50 626.06,518.92
             626.68,518.35 627.43,518.06 628.31,518.06
             628.54,518.06 628.77,518.01 629.02,517.89
             630.77,516.59 632.46,515.15 634.11,513.58
             634.22,513.46 634.25,513.34 634.19,513.20
             634.13,513.07 634.02,513.00 633.84,513.00
             633.84,513.00 614.16,513.00 614.16,513.00
             612.81,513.00 611.67,512.52 610.73,511.55
             609.80,510.58 609.33,509.40 609.33,508.00
             609.33,506.61 609.80,505.42 610.73,504.45
             611.67,503.48 612.81,503.00 614.16,503.00
             614.16,503.00 643.25,503.00 643.25,503.00
             643.36,503.00 643.51,503.00 643.69,503.00
             644.04,502.89 644.39,502.83 644.73,502.83
             645.62,502.83 646.44,503.12 647.20,503.69
             647.20,503.69 649.05,505.05 649.05,505.05
             649.98,505.80 650.51,506.74 650.62,507.88
             650.62,507.99 650.62,508.14 650.62,508.31
             650.62,509.28 650.27,510.14 649.58,510.88
             645.47,515.21 641.16,519.12 636.66,522.61
             636.19,522.95 635.95,523.40 635.95,523.97
             635.95,523.97 635.95,524.14 635.95,524.14
             635.95,524.71 636.24,525.00 636.83,525.00
             636.83,525.00 651.95,525.00 651.95,525.00 Z
           M 674.25,523.98
           C 674.25,522.23 674.86,520.73 676.09,519.50
             677.32,518.27 678.82,517.66 680.58,517.66
             682.34,517.66 683.83,518.27 685.06,519.50
             686.29,520.73 686.91,522.23 686.91,523.98
             686.91,525.75 686.29,527.24 685.06,528.47
             683.83,529.70 682.34,530.31 680.58,530.31
             678.82,530.31 677.32,529.70 676.09,528.47
             674.86,527.24 674.25,525.75 674.25,523.98 Z
           M 757.05,530.61
           C 757.16,530.50 757.19,530.37 757.12,530.22
             757.07,530.07 756.96,530.00 756.78,530.00
             756.78,530.00 734.72,530.00 734.72,530.00
             734.54,530.00 734.42,530.07 734.36,530.22
             734.30,530.37 734.34,530.50 734.45,530.61
             737.20,533.66 740.60,536.27 744.66,538.44
             745.18,538.73 745.70,538.73 746.23,538.44
             750.45,536.21 754.05,533.60 757.05,530.61 Z
           M 764.86,521.00
           C 765.15,520.95 765.45,520.92 765.75,520.92
             766.51,520.92 767.21,521.16 767.86,521.62
             767.86,521.62 770.05,523.03 770.05,523.03
             771.05,523.68 771.66,524.59 771.89,525.75
             771.95,526.04 771.98,526.37 771.98,526.72
             771.98,527.48 771.75,528.21 771.28,528.92
             767.76,534.08 763.19,538.56 757.56,542.36
             757.39,542.48 757.32,542.62 757.34,542.80
             757.38,542.98 757.48,543.09 757.66,543.16
             764.51,545.09 772.45,546.43 781.47,547.20
             782.76,547.32 783.67,547.93 784.20,549.05
             784.43,549.57 784.55,550.06 784.55,550.53
             784.55,551.18 784.34,551.80 783.94,552.39
             783.00,553.91 781.77,555.11 780.25,555.98
             778.96,556.69 777.64,557.05 776.30,557.05
             775.99,557.05 775.67,557.02 775.33,556.95
             763.72,555.55 753.94,553.02 745.97,549.39
             745.44,549.16 744.91,549.16 744.39,549.39
             735.83,552.85 725.57,555.46 713.62,557.22
             713.27,557.28 712.95,557.31 712.66,557.31
             711.43,557.31 710.29,556.99 709.23,556.34
             707.83,555.52 706.74,554.38 705.98,552.91
             705.68,552.32 705.53,551.77 705.53,551.23
             705.53,550.71 705.65,550.19 705.89,549.66
             706.42,548.54 707.30,547.93 708.53,547.81
             718.13,546.81 726.57,545.17 733.84,542.89
             734.02,542.83 734.12,542.71 734.14,542.55
             734.17,542.37 734.10,542.22 733.92,542.09
             731.17,539.88 728.71,537.53 726.55,535.06
             726.19,534.59 725.75,534.51 725.22,534.80
             722.58,536.45 719.69,538.00 716.53,539.47
             715.76,539.81 714.97,539.98 714.16,539.98
             713.56,539.98 712.97,539.90 712.39,539.72
             710.98,539.31 709.79,538.50 708.80,537.27
             708.20,536.62 707.91,535.89 707.91,535.06
             707.91,534.77 707.94,534.48 708.00,534.19
             708.23,533.07 708.90,532.28 710.02,531.81
             716.99,529.06 722.77,525.67 727.33,521.62
             727.80,521.21 727.83,520.80 727.42,520.41
             727.07,520.00 726.69,519.57 726.28,519.11
             725.05,517.85 724.44,516.39 724.44,514.73
             724.44,512.79 725.14,511.10 726.55,509.67
             730.77,505.50 732.99,499.89 733.22,492.86
             733.22,492.63 733.13,492.43 732.95,492.27
             732.79,492.09 732.58,492.00 732.34,492.00
             732.34,492.00 710.20,492.00 710.20,492.00
             708.85,492.00 707.69,491.52 706.72,490.56
             705.76,489.59 705.28,488.41 705.28,487.00
             705.28,485.59 705.76,484.41 706.72,483.45
             707.69,482.48 708.85,482.00 710.20,482.00
             710.20,482.00 738.58,482.00 738.58,482.00
             739.17,482.00 739.47,481.73 739.47,481.20
             739.47,481.20 739.47,479.70 739.47,479.70
             739.47,478.18 739.99,476.90 741.05,475.84
             742.11,474.79 743.38,474.27 744.88,474.27
             746.36,474.27 747.63,474.79 748.69,475.84
             749.75,476.90 750.28,478.18 750.28,479.70
             750.28,479.70 750.28,481.20 750.28,481.20
             750.28,481.73 750.55,482.00 751.08,482.00
             751.08,482.00 779.98,482.00 779.98,482.00
             781.33,482.00 782.48,482.48 783.45,483.45
             784.42,484.41 784.91,485.59 784.91,487.00
             784.91,488.41 784.42,489.59 783.45,490.56
             782.48,491.52 781.33,492.00 779.98,492.00
             779.98,492.00 762.48,492.00 762.48,492.00
             761.90,492.00 761.61,492.29 761.61,492.86
             761.61,492.86 761.61,507.98 761.61,507.98
             761.61,510.34 761.34,512.18 760.81,513.52
             760.29,514.84 759.27,515.84 757.75,516.53
             755.99,517.34 753.44,517.82 750.09,518.00
             750.04,518.00 749.95,518.00 749.83,518.00
             748.60,518.00 747.46,517.57 746.41,516.72
             745.29,515.88 744.53,514.78 744.12,513.42
             744.01,513.03 743.95,512.66 743.95,512.31
             743.95,511.64 744.16,511.01 744.56,510.44
             745.21,509.53 746.09,509.08 747.20,509.08
             748.61,509.08 749.52,509.05 749.92,509.00
             750.45,509.00 750.82,508.92 751.02,508.75
             751.22,508.57 751.33,508.28 751.33,507.86
             751.33,507.86 751.33,492.88 751.33,492.88
             751.33,492.29 751.04,492.00 750.45,492.00
             750.45,492.00 743.95,492.00 743.95,492.00
             743.42,492.00 743.13,492.29 743.08,492.86
             743.02,501.84 740.73,509.02 736.22,514.39
             736.09,514.57 736.06,514.75 736.12,514.92
             736.19,515.09 736.30,515.20 736.47,515.25
             736.47,515.25 740.17,515.94 740.17,515.94
             741.29,516.17 742.02,516.80 742.38,517.83
             742.54,518.17 742.62,518.52 742.62,518.86
             742.62,519.48 742.39,520.09 741.92,520.66
             741.87,520.72 741.87,520.79 741.92,520.88
             741.98,520.96 742.05,521.00 742.11,521.00
             742.11,521.00 764.52,521.00 764.52,521.00
             764.63,521.00 764.74,521.00 764.86,521.00 Z
           M 714.23,498.84
           C 715.05,497.62 716.17,496.68 717.58,496.03
             718.40,495.68 719.22,495.50 720.05,495.50
             720.57,495.50 721.12,495.59 721.70,495.77
             722.94,496.12 723.82,496.91 724.34,498.14
             724.52,498.61 724.61,499.08 724.61,499.55
             724.61,500.26 724.41,500.93 724.00,501.58
             721.01,506.14 717.64,510.04 713.89,513.27
             712.95,514.08 711.89,514.48 710.72,514.48
             710.60,514.48 710.49,514.48 710.38,514.48
             709.02,514.37 707.82,513.84 706.77,512.91
             705.89,512.15 705.45,511.21 705.45,510.09
             705.45,508.87 705.95,507.84 706.94,507.02
             709.75,504.62 712.18,501.90 714.23,498.84 Z
           M 767.50,502.28
           C 766.80,501.51 766.45,500.66 766.45,499.72
             766.45,499.55 766.48,499.35 766.53,499.11
             766.71,497.88 767.32,496.98 768.38,496.39
             769.31,495.80 770.34,495.50 771.45,495.50
             771.69,495.50 771.96,495.53 772.25,495.59
             773.66,495.77 774.83,496.36 775.77,497.36
             778.98,500.76 781.65,503.83 783.77,506.58
             784.41,507.40 784.73,508.31 784.73,509.31
             784.73,509.66 784.70,510.01 784.64,510.36
             784.35,511.77 783.59,512.85 782.36,513.61
             781.54,514.08 780.66,514.31 779.72,514.31
             779.31,514.31 778.90,514.29 778.48,514.23
             777.14,513.88 776.05,513.12 775.23,511.94
             773.18,509.01 770.60,505.79 767.50,502.28 Z
           M 830.06,530.48
           C 830.11,530.31 830.08,530.14 829.97,529.97
             829.85,529.79 829.68,529.70 829.44,529.70
             829.44,529.70 817.31,529.70 817.31,529.70
             817.13,529.70 817.00,529.78 816.91,529.92
             816.82,530.07 816.84,530.20 816.97,530.31
             819.19,533.01 821.64,535.23 824.34,536.98
             824.88,537.34 825.34,537.31 825.75,536.91
             827.56,535.03 829.00,532.89 830.06,530.48 Z
           M 816.34,515.00
           C 815.76,515.00 815.47,515.29 815.47,515.88
             815.47,515.88 815.47,519.92 815.47,519.92
             815.47,520.51 815.76,520.80 816.34,520.80
             816.34,520.80 831.11,520.80 831.11,520.80
             831.69,520.80 831.98,520.51 831.98,519.92
             832.05,519.45 832.08,518.75 832.08,517.81
             832.08,517.81 832.08,515.88 832.08,515.88
             832.08,515.29 831.79,515.00 831.20,515.00
             831.20,515.00 816.34,515.00 816.34,515.00 Z
           M 816.34,501.20
           C 815.76,501.20 815.47,501.50 815.47,502.08
             815.47,502.08 815.47,506.12 815.47,506.12
             815.47,506.71 815.76,507.00 816.34,507.00
             816.34,507.00 831.20,507.00 831.20,507.00
             831.79,507.00 832.08,506.71 832.08,506.12
             832.08,506.12 832.08,502.08 832.08,502.08
             832.08,501.50 831.79,501.20 831.20,501.20
             831.20,501.20 816.34,501.20 816.34,501.20 Z
           M 860.20,502.08
           C 860.20,501.50 859.91,501.20 859.33,501.20
             859.33,501.20 844.20,501.20 844.20,501.20
             843.62,501.20 843.33,501.50 843.33,502.08
             843.33,502.08 843.33,506.12 843.33,506.12
             843.33,506.71 843.62,507.00 844.20,507.00
             844.20,507.00 859.33,507.00 859.33,507.00
             859.91,507.00 860.20,506.71 860.20,506.12
             860.20,506.12 860.20,502.08 860.20,502.08 Z
           M 859.33,520.80
           C 859.91,520.80 860.20,520.51 860.20,519.92
             860.20,519.92 860.20,515.88 860.20,515.88
             860.20,515.29 859.91,515.00 859.33,515.00
             859.33,515.00 844.20,515.00 844.20,515.00
             843.62,515.00 843.33,515.29 843.33,515.88
             843.33,515.88 843.33,517.89 843.33,517.89
             843.33,518.78 843.30,519.45 843.23,519.92
             843.23,520.15 843.32,520.36 843.50,520.53
             843.68,520.71 843.88,520.80 844.12,520.80
             844.12,520.80 859.33,520.80 859.33,520.80 Z
           M 870.84,522.14
           C 870.84,524.21 870.09,525.98 868.59,527.45
             867.10,528.92 865.30,529.66 863.20,529.66
             863.20,529.66 842.81,529.66 842.81,529.66
             842.22,529.66 841.86,529.92 841.75,530.44
             840.52,534.59 838.59,538.20 835.95,541.25
             835.84,541.42 835.80,541.61 835.86,541.81
             835.92,542.01 836.04,542.14 836.22,542.20
             841.02,543.64 846.42,544.64 852.42,545.19
             858.43,545.73 865.71,546.00 874.27,546.00
             875.49,546.00 876.43,546.53 877.08,547.59
             877.37,548.16 877.52,548.75 877.52,549.36
             877.52,549.81 877.43,550.29 877.25,550.80
             876.55,552.36 875.52,553.64 874.17,554.66
             872.89,555.55 871.49,556.00 869.97,556.00
             869.85,556.00 869.77,556.00 869.70,556.00
             860.50,555.66 852.49,554.98 845.66,553.97
             838.83,552.97 832.73,551.38 827.34,549.20
             826.81,548.98 826.28,549.00 825.75,549.28
             820.72,551.98 814.74,554.19 807.83,555.91
             807.24,556.03 806.66,556.09 806.06,556.09
             805.01,556.09 804.02,555.89 803.08,555.48
             801.49,554.80 800.20,553.73 799.20,552.30
             798.73,551.67 798.50,551.01 798.50,550.31
             798.50,549.86 798.62,549.40 798.86,548.94
             799.27,547.74 800.11,547.03 801.41,546.80
             806.69,545.76 811.29,544.46 815.20,542.92
             815.38,542.86 815.48,542.73 815.52,542.53
             815.55,542.34 815.50,542.18 815.39,542.06
             814.04,541.02 812.74,539.84 811.52,538.53
             810.58,537.55 810.11,536.46 810.11,535.25
             810.11,534.74 810.16,534.23 810.28,533.70
             810.81,531.87 812.02,530.61 813.89,529.92
             813.89,529.92 814.16,529.75 814.16,529.75
             814.22,529.75 814.25,529.71 814.25,529.62
             814.25,529.53 814.19,529.48 814.06,529.48
             814.06,529.48 813.09,529.48 813.09,529.48
             810.99,529.48 809.19,528.76 807.69,527.30
             806.20,525.83 805.45,524.06 805.45,522.00
             805.45,522.00 805.45,500.73 805.45,500.73
             805.45,498.67 806.20,496.91 807.69,495.45
             809.19,493.98 810.99,493.25 813.09,493.25
             813.09,493.25 831.20,493.25 831.20,493.25
             831.79,493.25 832.08,492.96 832.08,492.39
             832.08,492.39 832.08,488.86 832.08,488.86
             832.08,488.29 831.79,488.00 831.20,488.00
             831.20,488.00 802.38,488.00 802.38,488.00
             801.02,488.00 799.88,487.52 798.94,486.56
             798.00,485.61 797.53,484.43 797.53,483.05
             797.53,481.66 798.00,480.48 798.94,479.48
             799.88,478.50 801.02,478.00 802.38,478.00
             802.38,478.00 871.62,478.00 871.62,478.00
             872.98,478.00 874.12,478.50 875.06,479.48
             876.00,480.48 876.47,481.66 876.47,483.05
             876.47,484.43 876.00,485.61 875.06,486.56
             874.12,487.52 872.98,488.00 871.62,488.00
             871.62,488.00 844.22,488.00 844.22,488.00
             843.62,488.00 843.33,488.29 843.33,488.86
             843.33,488.86 843.33,492.41 843.33,492.41
             843.33,492.98 843.62,493.27 844.22,493.27
             844.22,493.27 863.20,493.27 863.20,493.27
             865.30,493.27 867.10,494.01 868.59,495.48
             870.09,496.95 870.84,498.73 870.84,500.80
             870.84,500.80 870.84,522.14 870.84,522.14 Z" />
</svg>
