<?xml version="1.0" encoding="UTF-8" standalone="no"?>
<!DOCTYPE svg PUBLIC "-//W3C//DTD SVG 20010904//EN"
              "http://www.w3.org/TR/2001/REC-SVG-20010904/DTD/svg10.dtd">

<svg xmlns="http://www.w3.org/2000/svg"
     width="1.66667in" height="1.66667in"
     viewBox="0 -125 1000 1000">
  <path id="パス"
        fill="white" stroke="black" stroke-width="3"
        d="M 74.64,350.66
           C 74.64,350.66 113.66,350.66 113.66,350.66
             115.36,350.66 116.83,351.24 118.06,352.41
             119.34,353.75 119.93,355.22 119.81,356.81
             119.81,356.81 116.88,378.38 116.88,378.38
             116.26,382.72 115.12,386.82 113.47,390.67
             111.70,394.54 109.23,397.80 106.08,400.47
             102.93,403.12 99.21,404.57 94.92,404.81
             94.92,404.81 86.48,404.81 86.48,404.81
             84.83,404.75 83.43,404.16 82.30,403.03
             81.17,401.90 80.58,400.50 80.52,398.84
             80.52,397.14 81.08,395.67 82.20,394.45
             83.34,393.23 84.77,392.58 86.48,392.52
             86.48,392.52 93.45,392.52 93.45,392.52
             95.79,392.39 97.82,391.51 99.56,389.86
             101.31,388.20 102.52,386.32 103.19,384.22
             103.86,382.11 104.35,379.79 104.66,377.28
             104.66,377.28 106.31,365.25 106.31,365.25
             106.50,363.78 105.98,363.02 104.75,362.95
             104.75,362.95 78.86,362.95 78.86,362.95
             78.25,365.59 77.43,368.10 76.39,370.48
             74.61,374.34 72.14,377.60 68.98,380.27
             65.84,382.92 62.12,384.38 57.84,384.62
             57.84,384.62 55.83,384.62 55.83,384.62
             54.17,384.56 52.77,383.96 51.64,382.83
             50.52,381.70 49.92,380.30 49.86,378.66
             49.86,376.94 50.42,375.47 51.55,374.25
             52.68,373.02 54.11,372.38 55.83,372.31
             55.83,372.31 56.38,372.31 56.38,372.31
             58.70,372.20 60.73,371.31 62.47,369.66
             64.22,368.00 65.43,366.12 66.09,364.02
             66.77,361.90 67.27,359.59 67.58,357.08
             67.58,357.08 67.58,356.62 67.58,356.62
             67.88,354.91 68.70,353.47 70.05,352.31
             71.40,351.21 72.93,350.66 74.64,350.66 Z
           M 142.41,349.19
           C 144.05,349.25 145.46,349.85 146.62,350.98
             147.79,352.11 148.41,353.50 148.47,355.16
             148.47,355.16 148.47,381.22 148.47,381.22
             148.09,384.90 146.07,386.89 142.41,387.19
             140.69,387.19 139.20,386.62 137.94,385.50
             136.69,384.37 136.06,382.94 136.06,381.22
             136.06,381.22 136.06,355.16 136.06,355.16
             136.12,353.44 136.77,352.02 137.98,350.89
             139.21,349.76 140.69,349.19 142.41,349.19 Z
           M 182.06,349.19
           C 183.71,349.25 185.11,349.85 186.28,350.98
             187.45,352.11 188.06,353.50 188.12,355.16
             188.12,355.16 188.12,378.38 188.12,378.38
             188.06,382.72 187.45,386.82 186.28,390.67
             185.06,394.54 183.05,397.80 180.27,400.47
             177.48,403.12 173.95,404.57 169.67,404.81
             169.67,404.81 163.80,404.81 163.80,404.81
             162.14,404.75 160.74,404.16 159.61,403.03
             158.48,401.90 157.89,400.50 157.83,398.84
             157.83,397.14 158.39,395.67 159.52,394.45
             160.65,393.23 162.08,392.58 163.80,392.52
             163.80,392.52 166.55,392.52 166.55,392.52
             168.87,392.39 170.80,391.51 172.33,389.86
             173.86,388.20 174.82,386.32 175.22,384.22
             175.61,382.11 175.78,379.79 175.72,377.28
             175.72,377.28 175.72,355.16 175.72,355.16
             175.78,353.44 176.42,352.02 177.64,350.89
             178.87,349.76 180.34,349.19 182.06,349.19 Z
           M 251.61,368.00
           C 251.61,368.00 245.38,387.66 245.38,387.66
             243.41,393.29 240.97,397.53 238.03,400.38
             235.09,403.21 231.91,404.75 228.48,405.00
             228.48,405.00 222.61,405.00 222.61,405.00
             221.25,404.94 220.12,404.45 219.20,403.52
             218.29,402.59 217.83,401.48 217.83,400.19
             217.83,398.77 218.27,397.57 219.16,396.58
             220.04,395.59 221.19,395.06 222.61,395.00
             222.61,395.00 225.91,395.00 225.91,395.00
             227.80,394.94 229.56,394.25 231.19,392.94
             232.81,391.62 234.05,390.10 234.91,388.39
             235.76,386.67 236.46,384.84 237.02,382.88
             237.02,382.88 242.44,364.80 242.44,364.80
             242.80,363.76 243.32,362.90 243.98,362.23
             244.66,361.56 245.67,361.22 247.02,361.22
             248.37,361.22 249.52,361.71 250.47,362.69
             251.41,363.67 251.89,364.86 251.89,366.27
             251.89,366.87 251.80,367.45 251.61,368.00 Z
           M 209.11,361.58
           C 210.45,361.58 211.58,362.04 212.50,362.95
             213.41,363.87 213.91,365.01 213.97,366.36
             213.97,366.36 213.97,381.31 213.97,381.31
             213.66,384.25 212.05,385.84 209.11,386.09
             207.77,386.09 206.59,385.64 205.58,384.72
             204.57,383.79 204.06,382.66 204.06,381.31
             204.06,381.31 204.06,366.36 204.06,366.36
             204.12,364.95 204.64,363.79 205.62,362.91
             206.60,362.02 207.77,361.58 209.11,361.58 Z
           M 223.80,361.58
           C 225.14,361.58 226.27,362.04 227.19,362.95
             228.10,363.87 228.59,365.01 228.66,366.36
             228.66,366.36 228.66,381.31 228.66,381.31
             228.35,384.25 226.73,385.84 223.80,386.09
             222.45,386.09 221.27,385.64 220.27,384.72
             219.25,383.79 218.75,382.66 218.75,381.31
             218.75,381.31 218.75,366.36 218.75,366.36
             218.81,364.95 219.33,363.79 220.31,362.91
             221.29,362.02 222.45,361.58 223.80,361.58 Z
           M 287.64,350.66
           C 287.64,350.66 326.66,350.66 326.66,350.66
             328.36,350.66 329.83,351.24 331.06,352.41
             332.34,353.75 332.93,355.22 332.81,356.81
             332.81,356.81 329.88,378.38 329.88,378.38
             329.26,382.72 328.12,386.82 326.47,390.67
             324.70,394.54 322.23,397.80 319.08,400.47
             315.93,403.12 312.21,404.57 307.92,404.81
             307.92,404.81 299.48,404.81 299.48,404.81
             297.83,404.75 296.43,404.16 295.30,403.03
             294.17,401.90 293.58,400.50 293.52,398.84
             293.52,397.14 294.08,395.67 295.20,394.45
             296.34,393.23 297.77,392.58 299.48,392.52
             299.48,392.52 306.45,392.52 306.45,392.52
             308.79,392.39 310.82,391.51 312.56,389.86
             314.31,388.20 315.52,386.32 316.19,384.22
             316.86,382.11 317.35,379.79 317.66,377.28
             317.66,377.28 319.31,365.25 319.31,365.25
             319.50,363.78 318.98,363.02 317.75,362.95
             317.75,362.95 291.86,362.95 291.86,362.95
             291.25,365.59 290.43,368.10 289.39,370.48
             287.61,374.34 285.14,377.60 281.98,380.27
             278.84,382.92 275.12,384.38 270.84,384.62
             270.84,384.62 268.83,384.62 268.83,384.62
             267.17,384.56 265.77,383.96 264.64,382.83
             263.52,381.70 262.92,380.30 262.86,378.66
             262.86,376.94 263.42,375.47 264.55,374.25
             265.68,373.02 267.11,372.38 268.83,372.31
             268.83,372.31 269.38,372.31 269.38,372.31
             271.70,372.20 273.73,371.31 275.47,369.66
             277.22,368.00 278.43,366.12 279.09,364.02
             279.77,361.90 280.27,359.59 280.58,357.08
             280.58,357.08 280.58,356.62 280.58,356.62
             280.88,354.91 281.70,353.47 283.05,352.31
             284.40,351.21 285.93,350.66 287.64,350.66 Z
           M 378.36,407.00
           C 375.17,407.00 372.03,406.62 368.94,405.86
             365.85,405.10 362.90,403.98 360.08,402.48
             357.27,400.98 354.77,399.01 352.59,396.56
             350.43,394.12 349.25,391.24 349.06,387.94
             349.06,387.94 349.06,354.80 349.06,354.80
             349.44,351.12 351.46,349.13 355.12,348.83
             356.84,348.83 358.33,349.40 359.58,350.53
             360.84,351.66 361.47,353.08 361.47,354.80
             361.47,354.80 361.47,385.09 361.47,385.09
             361.58,386.99 362.30,388.57 363.61,389.83
             364.93,391.08 366.40,392.07 368.02,392.81
             369.64,393.54 371.32,394.09 373.06,394.45
             374.81,394.82 376.58,395.00 378.36,395.00
             380.13,395.00 381.88,394.82 383.62,394.45
             385.38,394.09 387.05,393.54 388.67,392.81
             390.30,392.07 391.77,391.08 393.08,389.83
             394.40,388.57 395.12,386.99 395.25,385.09
             395.25,385.09 395.25,382.70 395.25,382.70
             395.55,379.03 397.54,377.04 401.20,376.73
             402.92,376.73 404.41,377.30 405.66,378.44
             406.91,379.56 407.55,380.98 407.55,382.70
             407.55,382.70 407.55,387.94 407.55,387.94
             407.36,391.24 406.19,394.12 404.05,396.56
             401.91,399.01 399.43,400.98 396.61,402.48
             393.80,403.98 390.84,405.10 387.75,405.86
             384.66,406.62 381.54,407.00 378.36,407.00 Z
           M 419.78,356.81
           C 419.78,355.09 420.38,353.64 421.56,352.45
             422.76,351.26 424.21,350.66 425.92,350.66
             425.92,350.66 474.03,350.66 474.03,350.66
             477.88,351.02 479.99,353.13 480.36,356.98
             480.36,358.70 479.73,360.13 478.47,361.27
             477.22,362.39 475.74,362.95 474.03,362.95
             474.03,362.95 458.52,362.95 458.52,362.95
             456.19,363.08 454.17,363.97 452.45,365.62
             450.68,367.27 449.33,369.15 448.41,371.27
             447.49,373.38 446.91,375.54 446.67,377.73
             446.42,379.95 446.55,382.12 447.08,384.27
             447.60,386.40 448.85,388.28 450.84,389.91
             452.83,391.52 454.99,392.39 457.31,392.52
             457.31,392.52 468.52,392.52 468.52,392.52
             472.37,392.88 474.48,394.99 474.86,398.84
             474.80,400.56 474.15,401.99 472.92,403.12
             471.70,404.25 470.23,404.81 468.52,404.81
             468.52,404.81 457.97,404.81 457.97,404.81
             451.16,404.57 446.08,402.94 442.72,399.91
             439.35,396.88 437.00,393.43 435.66,389.58
             434.31,385.73 433.85,381.78 434.28,377.73
             434.83,371.73 436.70,367.12 439.88,363.88
             440.19,363.57 440.52,363.27 440.89,362.95
             440.89,362.95 425.92,362.95 425.92,362.95
             424.21,362.95 422.77,362.34 421.61,361.12
             420.39,359.96 419.78,358.52 419.78,356.81 Z
           M 560.44,397.00
           C 561.05,397.00 561.36,396.70 561.36,396.08
             561.36,396.08 561.36,352.84 561.36,352.84
             561.36,351.38 561.89,350.11 562.97,349.03
             564.04,347.96 565.33,347.42 566.83,347.42
             568.33,347.42 569.60,347.96 570.64,349.03
             571.68,350.11 572.20,351.38 572.20,352.84
             572.20,352.84 572.20,407.81 572.20,407.81
             572.20,409.35 571.68,410.64 570.64,411.67
             569.60,412.71 568.31,413.23 566.78,413.23
             566.78,413.23 566.14,413.23 566.14,413.23
             564.79,413.23 563.65,412.77 562.73,411.86
             561.82,410.94 561.36,409.84 561.36,408.56
             561.36,408.19 561.18,408.00 560.81,408.00
             560.81,408.00 505.19,408.00 505.19,408.00
             504.82,408.00 504.64,408.19 504.64,408.56
             504.64,409.84 504.18,410.94 503.27,411.86
             502.35,412.77 501.21,413.23 499.86,413.23
             499.86,413.23 499.22,413.23 499.22,413.23
             497.69,413.23 496.40,412.71 495.36,411.67
             494.32,410.64 493.80,409.35 493.80,407.81
             493.80,407.81 493.80,352.84 493.80,352.84
             493.80,351.38 494.32,350.11 495.36,349.03
             496.40,347.96 497.67,347.42 499.17,347.42
             500.67,347.42 501.96,347.96 503.03,349.03
             504.10,350.11 504.64,351.38 504.64,352.84
             504.64,352.84 504.64,396.08 504.64,396.08
             504.64,396.70 504.95,397.00 505.56,397.00
             505.56,397.00 560.44,397.00 560.44,397.00 Z
           M 544.94,366.00
           C 545.55,366.00 545.86,365.70 545.86,365.08
             545.86,365.08 545.86,358.92 545.86,358.92
             545.86,358.31 545.55,358.00 544.94,358.00
             544.94,358.00 538.42,358.00 538.42,358.00
             537.80,358.00 537.50,358.31 537.50,358.92
             537.50,358.92 537.50,365.08 537.50,365.08
             537.50,365.70 537.80,366.00 538.42,366.00
             538.42,366.00 544.94,366.00 544.94,366.00 Z
           M 544.94,383.00
           C 545.55,383.00 545.86,382.66 545.86,381.98
             545.86,381.98 545.86,375.02 545.86,375.02
             545.86,374.34 545.55,374.00 544.94,374.00
             544.94,374.00 538.42,374.00 538.42,374.00
             537.80,374.00 537.50,374.34 537.50,375.02
             537.50,375.02 537.50,381.98 537.50,381.98
             537.50,382.66 537.80,383.00 538.42,383.00
             538.42,383.00 544.94,383.00 544.94,383.00 Z
           M 520.80,374.00
           C 520.18,374.00 519.88,374.34 519.88,375.02
             519.88,375.02 519.88,381.98 519.88,381.98
             519.88,382.66 520.18,383.00 520.80,383.00
             520.80,383.00 527.03,383.00 527.03,383.00
             527.64,383.00 527.95,382.66 527.95,381.98
             527.95,381.98 527.95,375.02 527.95,375.02
             527.95,374.34 527.64,374.00 527.03,374.00
             527.03,374.00 520.80,374.00 520.80,374.00 Z
           M 520.80,358.00
           C 520.18,358.00 519.88,358.31 519.88,358.92
             519.88,358.92 519.88,365.08 519.88,365.08
             519.88,365.70 520.18,366.00 520.80,366.00
             520.80,366.00 527.03,366.00 527.03,366.00
             527.64,366.00 527.95,365.70 527.95,365.08
             527.95,365.08 527.95,358.92 527.95,358.92
             527.95,358.31 527.64,358.00 527.03,358.00
             527.03,358.00 520.80,358.00 520.80,358.00 Z
           M 496.19,331.00
           C 496.19,331.00 569.62,331.00 569.62,331.00
             571.03,331.00 572.25,331.48 573.30,332.45
             574.34,333.41 574.86,334.58 574.86,335.95
             574.86,337.33 574.34,338.52 573.30,339.52
             572.25,340.51 571.03,341.00 569.62,341.00
             569.62,341.00 539.16,341.00 539.16,341.00
             538.54,341.00 538.23,341.32 538.23,341.97
             538.23,341.97 538.23,348.03 538.23,348.03
             538.23,348.68 538.54,349.00 539.16,349.00
             539.16,349.00 547.50,349.00 547.50,349.00
             549.71,349.00 551.59,349.79 553.14,351.36
             554.70,352.92 555.48,354.81 555.48,357.03
             555.48,357.03 555.48,383.97 555.48,383.97
             555.48,386.19 554.70,388.09 553.14,389.66
             551.58,391.22 549.70,392.00 547.50,392.00
             547.50,392.00 518.59,392.00 518.59,392.00
             516.39,392.00 514.52,391.22 512.95,389.66
             511.39,388.09 510.61,386.19 510.61,383.97
             510.61,383.97 510.61,357.03 510.61,357.03
             510.61,354.81 511.38,352.92 512.94,351.36
             514.50,349.79 516.38,349.00 518.59,349.00
             518.59,349.00 526.11,349.00 526.11,349.00
             526.72,349.00 527.03,348.68 527.03,348.03
             527.03,348.03 527.03,341.97 527.03,341.97
             527.03,341.32 526.72,341.00 526.11,341.00
             526.11,341.00 496.19,341.00 496.19,341.00
             494.78,341.00 493.55,340.51 492.52,339.52
             491.47,338.52 490.95,337.33 490.95,335.95
             490.95,334.58 491.47,333.41 492.52,332.45
             493.55,331.48 494.78,331.00 496.19,331.00 Z
           M 600.17,330.55
           C 600.66,329.14 601.58,328.11 602.94,327.44
             603.73,326.95 604.58,326.70 605.50,326.70
             605.99,326.70 606.48,326.79 606.97,326.97
             608.44,327.34 609.51,328.16 610.19,329.45
             610.55,330.18 610.73,330.95 610.73,331.75
             610.73,332.30 610.64,332.88 610.45,333.48
             608.98,337.59 607.30,341.72 605.41,345.88
             605.16,346.43 605.05,347.01 605.05,347.62
             605.05,347.62 605.05,407.30 605.05,407.30
             605.05,408.77 604.52,410.02 603.48,411.06
             602.44,412.10 601.19,412.62 599.72,412.62
             598.25,412.62 596.99,412.10 595.95,411.06
             594.91,410.02 594.39,408.77 594.39,407.30
             594.39,407.30 594.39,366.91 594.39,366.91
             594.39,366.78 594.33,366.69 594.20,366.62
             594.09,366.56 594.00,366.59 593.94,366.72
             593.51,367.27 593.11,367.86 592.73,368.47
             592.00,369.45 591.05,369.94 589.89,369.94
             589.71,369.94 589.50,369.91 589.25,369.84
             587.84,369.66 586.83,368.92 586.22,367.64
             585.49,366.17 585.12,364.64 585.12,363.05
             585.12,362.75 585.16,362.44 585.22,362.12
             585.33,360.17 585.94,358.42 587.05,356.89
             592.24,349.43 596.62,340.65 600.17,330.55 Z
           M 624.42,352.00
           C 623.80,352.00 623.50,352.29 623.50,352.88
             623.50,352.88 623.50,358.12 623.50,358.12
             623.50,358.71 623.80,359.00 624.42,359.00
             624.42,359.00 634.69,359.00 634.69,359.00
             635.30,359.00 635.61,358.71 635.61,358.12
             635.61,358.12 635.61,352.88 635.61,352.88
             635.61,352.29 635.30,352.00 634.69,352.00
             634.69,352.00 624.42,352.00 624.42,352.00 Z
           M 641.67,339.83
           C 641.80,339.65 641.81,339.47 641.72,339.28
             641.62,339.09 641.45,339.00 641.20,339.00
             641.20,339.00 629.00,339.00 629.00,339.00
             628.38,339.00 627.89,339.25 627.53,339.73
             626.31,341.29 625.33,342.50 624.59,343.36
             624.47,343.48 624.44,343.61 624.50,343.77
             624.56,343.92 624.69,344.00 624.88,344.00
             624.88,344.00 637.53,344.00 637.53,344.00
             638.21,344.00 638.73,343.79 639.09,343.36
             639.96,342.25 640.82,341.07 641.67,339.83 Z
           M 657.83,359.00
           C 658.44,359.00 658.75,358.71 658.75,358.12
             658.75,358.12 658.75,352.88 658.75,352.88
             658.75,352.29 658.44,352.00 657.83,352.00
             657.83,352.00 646.45,352.00 646.45,352.00
             645.84,352.00 645.53,352.29 645.53,352.88
             645.53,352.88 645.53,358.12 645.53,358.12
             645.53,358.71 645.84,359.00 646.45,359.00
             646.45,359.00 657.83,359.00 657.83,359.00 Z
           M 637.08,402.17
           C 638.30,401.07 638.98,398.93 639.09,395.75
             639.16,395.56 639.09,395.42 638.91,395.33
             638.73,395.23 638.58,395.25 638.45,395.38
             634.66,398.19 630.68,400.79 626.52,403.19
             626.40,403.24 626.36,403.33 626.39,403.45
             626.42,403.58 626.49,403.67 626.61,403.73
             628.69,403.91 630.68,404.00 632.58,404.00
             634.66,404.00 636.16,403.39 637.08,402.17 Z
           M 661.67,371.95
           C 662.71,371.04 663.94,370.52 665.34,370.41
             665.41,370.41 665.50,370.41 665.62,370.41
             666.85,370.41 667.98,370.84 669.02,371.69
             670.00,372.54 670.50,373.64 670.50,374.98
             670.50,376.28 670.00,377.35 669.02,378.20
             666.52,380.23 663.67,382.34 660.48,384.53
             659.99,384.91 659.90,385.37 660.20,385.91
             662.84,390.69 665.96,394.61 669.58,397.66
             670.68,398.59 671.32,399.78 671.50,401.25
             671.50,401.43 671.50,401.61 671.50,401.80
             671.50,403.02 671.10,404.12 670.31,405.09
             669.33,406.32 668.11,407.05 666.64,407.30
             666.33,407.36 666.02,407.39 665.72,407.39
             664.61,407.39 663.57,406.99 662.59,406.20
             653.97,398.31 647.76,385.55 643.97,367.92
             643.84,367.31 643.47,367.00 642.86,367.00
             642.86,367.00 642.22,367.00 642.22,367.00
             641.60,367.00 641.05,367.21 640.56,367.64
             639.83,368.25 638.79,369.00 637.44,369.91
             636.95,370.27 636.91,370.67 637.34,371.09
             640.72,374.06 643.38,377.50 645.34,381.41
             647.30,385.31 648.46,389.03 648.83,392.55
             648.95,393.64 649.02,394.73 649.02,395.81
             649.02,398.12 648.74,400.30 648.19,402.36
             647.38,405.39 646.13,407.66 644.42,409.19
             642.10,411.43 639.31,412.66 636.06,412.91
             635.82,412.97 635.58,413.00 635.33,413.00
             633.49,413.00 631.84,412.30 630.38,410.91
             628.66,409.46 627.28,407.55 626.25,405.19
             626.12,404.94 626.00,404.70 625.88,404.45
             625.57,403.98 625.14,403.89 624.59,404.19
             622.14,405.52 619.76,406.76 617.44,407.91
             616.70,408.21 615.93,408.36 615.14,408.36
             614.59,408.36 614.04,408.27 613.48,408.09
             612.20,407.66 611.13,406.88 610.28,405.73
             609.79,405.12 609.55,404.42 609.55,403.64
             609.55,403.34 609.60,403.04 609.72,402.73
             610.03,401.58 610.71,400.82 611.75,400.45
             616.21,398.76 620.66,396.67 625.09,394.19
             629.53,391.70 633.31,389.15 636.44,386.55
             636.93,386.12 637.05,385.64 636.80,385.09
             636.55,384.61 636.28,384.09 635.97,383.55
             635.73,383.01 635.33,382.91 634.78,383.27
             629.33,386.96 623.67,390.18 617.80,392.91
             617.12,393.21 616.48,393.36 615.88,393.36
             615.38,393.36 614.86,393.27 614.31,393.09
             613.21,392.73 612.29,392.03 611.56,391.00
             610.95,390.16 610.77,389.23 611.05,388.23
             611.33,387.23 611.96,386.58 612.94,386.27
             619.24,383.96 625.11,381.06 630.56,377.55
             631.11,377.25 631.17,376.85 630.73,376.36
             630.49,376.12 630.22,375.88 629.92,375.64
             629.48,375.21 628.99,375.15 628.45,375.45
             625.27,377.15 622.02,378.70 618.72,380.09
             617.91,380.40 617.15,380.55 616.42,380.55
             615.87,380.55 615.29,380.45 614.67,380.27
             613.33,379.91 612.23,379.19 611.38,378.09
             610.88,377.49 610.64,376.82 610.64,376.09
             610.64,375.86 610.67,375.58 610.73,375.27
             611.04,374.18 611.68,373.49 612.66,373.19
             617.36,371.61 621.86,369.70 626.16,367.45
             626.22,367.39 626.23,367.30 626.20,367.19
             626.17,367.06 626.09,367.00 625.97,367.00
             625.97,367.00 621.38,367.00 621.38,367.00
             619.18,367.00 617.30,366.21 615.73,364.64
             614.17,363.06 613.39,361.15 613.39,358.92
             613.39,358.92 613.39,353.64 613.39,353.64
             613.39,352.96 613.18,352.44 612.75,352.06
             612.75,352.00 612.72,351.97 612.66,351.97
             611.19,350.54 610.45,348.84 610.45,346.86
             610.45,344.95 611.16,343.34 612.56,342.05
             616.48,338.39 619.82,334.40 622.58,330.08
             623.49,328.73 624.66,327.70 626.06,326.95
             627.10,326.46 628.14,326.22 629.19,326.22
             629.61,326.22 630.04,326.25 630.47,326.31
             630.47,326.31 631.84,326.59 631.84,326.59
             632.76,326.77 633.43,327.29 633.86,328.16
             634.29,329.01 634.25,329.84 633.77,330.62
             633.59,330.88 633.65,331.00 633.95,331.00
             633.95,331.00 645.52,331.00 645.52,331.00
             645.52,330.94 645.55,330.91 645.61,330.91
             645.61,330.91 647.72,330.91 647.72,330.91
             647.84,330.91 647.97,330.88 648.09,330.81
             648.46,330.75 648.82,330.72 649.19,330.72
             649.99,330.72 650.72,330.93 651.39,331.36
             651.39,331.36 653.14,332.64 653.14,332.64
             654.05,333.32 654.64,334.20 654.89,335.30
             654.95,335.61 654.98,335.89 654.98,336.12
             654.98,336.92 654.77,337.65 654.33,338.33
             653.17,340.16 652.04,341.81 650.94,343.27
             650.81,343.45 650.78,343.62 650.84,343.78
             650.91,343.93 651.03,344.00 651.22,344.00
             651.22,344.00 661.41,344.00 661.41,344.00
             663.60,344.00 665.48,344.80 667.05,346.39
             668.61,347.98 669.39,349.89 669.39,352.14
             669.39,352.14 669.39,358.86 669.39,358.86
             669.39,361.11 668.61,363.03 667.05,364.62
             665.48,366.21 663.60,367.00 661.41,367.00
             661.41,367.00 654.06,367.00 654.06,367.00
             653.81,367.00 653.62,367.09 653.50,367.28
             653.38,367.46 653.36,367.67 653.42,367.92
             654.15,370.98 654.94,373.71 655.80,376.09
             655.92,376.34 656.09,376.48 656.30,376.55
             656.52,376.61 656.72,376.55 656.91,376.36
             658.61,374.84 660.20,373.37 661.67,371.95 Z
           M 683.52,359.50
           C 683.52,358.00 684.11,356.71 685.30,355.62
             686.49,354.54 687.95,354.00 689.66,354.00
             689.66,354.00 704.53,354.00 704.53,354.00
             704.53,354.00 704.81,352.53 704.81,352.53
             705.11,351.00 705.92,349.78 707.23,348.86
             708.55,347.95 710.04,347.58 711.69,347.77
             713.34,348.07 714.69,348.86 715.73,350.14
             716.65,351.31 717.08,352.59 717.02,354.00
             717.02,354.00 742.34,354.00 742.34,354.00
             744.06,354.00 745.53,354.51 746.75,355.53
             747.91,356.68 748.50,358.00 748.50,359.50
             748.50,361.00 747.90,362.29 746.70,363.38
             745.52,364.46 744.06,365.00 742.34,365.00
             742.34,365.00 715.17,365.00 715.17,365.00
             715.17,365.00 714.08,371.52 714.08,371.52
             714.08,371.52 742.34,371.52 742.34,371.52
             744.06,371.52 745.52,372.13 746.70,373.36
             747.90,374.58 748.50,376.07 748.50,377.84
             748.50,379.56 747.89,381.03 746.67,382.25
             745.50,383.48 744.06,384.09 742.34,384.09
             742.34,384.09 725.83,384.09 725.83,384.09
             725.83,384.09 725.73,384.55 725.73,384.55
             725.43,386.20 724.57,387.52 723.16,388.50
             721.75,389.48 720.19,389.82 718.48,389.52
             715.12,388.65 713.38,386.84 713.25,384.09
             713.25,384.09 706.09,384.09 706.09,384.09
             705.18,384.16 704.43,384.40 703.84,384.83
             703.26,385.26 702.83,385.76 702.55,386.34
             702.27,386.93 702.14,387.46 702.14,387.95
             702.14,388.56 702.27,389.15 702.55,389.73
             702.83,390.32 703.26,390.82 703.84,391.25
             704.43,391.68 705.18,391.89 706.09,391.89
             706.09,391.89 735.56,391.89 735.56,391.89
             737.27,391.89 738.72,392.51 739.91,393.73
             741.10,394.95 741.70,396.42 741.70,398.14
             741.70,399.91 741.09,401.41 739.88,402.64
             738.71,403.86 737.27,404.47 735.56,404.47
             735.56,404.47 707.83,404.47 707.83,404.47
             703.55,404.47 700.02,403.54 697.23,401.67
             694.45,399.81 692.46,397.70 691.27,395.34
             690.07,392.98 689.47,390.57 689.47,388.12
             689.47,385.68 690.08,383.28 691.30,380.92
             692.52,378.57 694.52,376.45 697.28,374.55
             698.44,373.76 699.78,373.12 701.31,372.62
             701.31,372.62 702.61,365.00 702.61,365.00
             702.61,365.00 689.66,365.00 689.66,365.00
             687.95,365.00 686.51,364.46 685.34,363.38
             684.12,362.29 683.52,361.00 683.52,359.50 Z
           M 777.03,330.64
           C 777.64,329.23 778.66,328.20 780.06,327.52
             780.85,327.15 781.65,326.97 782.45,326.97
             783.05,326.97 783.63,327.06 784.19,327.25
             785.59,327.74 786.60,328.62 787.22,329.91
             787.58,330.65 787.77,331.35 787.77,332.02
             787.77,332.70 787.61,333.34 787.31,333.95
             785.29,338.54 783.21,342.79 781.08,346.70
             780.83,347.20 780.70,347.75 780.70,348.36
             780.70,348.36 780.70,407.66 780.70,407.66
             780.70,409.12 780.18,410.38 779.14,411.42
             778.10,412.46 776.84,412.98 775.38,412.98
             773.91,412.98 772.66,412.46 771.62,411.42
             770.58,410.38 770.06,409.12 770.06,407.66
             770.06,407.66 770.06,364.70 770.06,364.70
             770.06,364.58 769.98,364.48 769.83,364.42
             769.67,364.36 769.56,364.39 769.50,364.52
             768.71,365.56 767.94,366.51 767.20,367.36
             766.41,368.34 765.41,368.83 764.19,368.83
             763.94,368.83 763.69,368.80 763.45,368.73
             761.98,368.50 760.88,367.70 760.14,366.36
             759.41,365.01 759.05,363.59 759.05,362.12
             759.05,361.76 759.07,361.37 759.12,360.94
             759.38,359.11 760.11,357.45 761.33,355.98
             767.70,348.58 772.94,340.13 777.03,330.64 Z
           M 802.83,339.42
           C 802.21,339.42 801.91,339.73 801.91,340.34
             801.91,340.34 801.91,351.09 801.91,351.09
             801.91,351.70 802.21,352.00 802.83,352.00
             802.83,352.00 828.53,352.00 828.53,352.00
             829.14,352.00 829.45,351.70 829.45,351.09
             829.45,351.09 829.45,340.34 829.45,340.34
             829.45,339.73 829.14,339.42 828.53,339.42
             828.53,339.42 802.83,339.42 802.83,339.42 Z
           M 840.19,380.00
           C 840.19,380.00 827.34,380.00 827.34,380.00
             827.16,380.00 827.02,380.08 826.92,380.23
             826.83,380.39 826.84,380.56 826.97,380.73
             831.44,387.10 836.79,392.58 843.03,397.17
             844.20,398.09 844.87,399.28 845.05,400.75
             845.05,400.94 845.05,401.12 845.05,401.30
             845.05,402.59 844.62,403.73 843.77,404.70
             842.61,405.92 841.23,406.66 839.64,406.91
             839.39,406.97 839.14,407.00 838.91,407.00
             837.61,407.00 836.45,406.57 835.42,405.72
             830.34,401.19 825.69,395.71 821.47,389.28
             821.41,389.16 821.31,389.12 821.19,389.19
             821.06,389.25 821.00,389.34 821.00,389.47
             821.00,389.47 821.00,407.19 821.00,407.19
             821.00,408.71 820.45,410.02 819.34,411.12
             818.25,412.23 816.92,412.78 815.36,412.78
             813.80,412.78 812.46,412.23 811.36,411.12
             810.27,410.02 809.72,408.71 809.72,407.19
             809.72,407.19 809.72,389.92 809.72,389.92
             809.72,389.80 809.66,389.70 809.53,389.64
             809.41,389.58 809.28,389.61 809.16,389.73
             804.75,396.04 799.77,401.39 794.20,405.80
             793.16,406.54 792.05,406.91 790.89,406.91
             790.52,406.91 790.19,406.88 789.89,406.81
             788.30,406.57 786.95,405.80 785.84,404.52
             785.05,403.60 784.66,402.53 784.66,401.30
             784.66,401.12 784.66,400.91 784.66,400.66
             784.83,399.19 785.54,398.06 786.77,397.27
             793.37,392.86 799.06,387.35 803.84,380.73
             803.96,380.56 803.97,380.39 803.88,380.23
             803.79,380.08 803.66,380.00 803.47,380.00
             803.47,380.00 790.16,380.00 790.16,380.00
             788.75,380.00 787.55,379.51 786.58,378.52
             785.60,377.53 785.11,376.36 785.11,375.00
             785.11,373.65 785.60,372.48 786.58,371.48
             787.55,370.50 788.75,370.00 790.16,370.00
             790.16,370.00 808.80,370.00 808.80,370.00
             809.41,370.00 809.72,369.71 809.72,369.12
             809.72,369.12 809.72,362.88 809.72,362.88
             809.72,362.29 809.41,362.00 808.80,362.00
             808.80,362.00 799.25,362.00 799.25,362.00
             797.05,362.00 795.17,361.22 793.61,359.66
             792.05,358.09 791.27,356.21 791.27,354.02
             791.27,354.02 791.27,337.77 791.27,337.77
             791.27,335.56 792.05,333.68 793.61,332.12
             795.17,330.56 797.05,329.78 799.25,329.78
             799.25,329.78 832.66,329.78 832.66,329.78
             834.85,329.78 836.73,330.56 838.30,332.12
             839.86,333.68 840.64,335.56 840.64,337.77
             840.64,337.77 840.64,354.02 840.64,354.02
             840.64,356.21 839.86,358.09 838.30,359.66
             836.73,361.22 834.85,362.00 832.66,362.00
             832.66,362.00 821.92,362.00 821.92,362.00
             821.30,362.00 821.00,362.29 821.00,362.88
             821.00,362.88 821.00,369.12 821.00,369.12
             821.00,369.71 821.30,370.00 821.92,370.00
             821.92,370.00 840.19,370.00 840.19,370.00
             841.59,370.00 842.79,370.50 843.77,371.48
             844.74,372.48 845.23,373.65 845.23,375.00
             845.23,376.36 844.74,377.53 843.77,378.52
             842.79,379.51 841.59,380.00 840.19,380.00 Z
           M 933.98,349.00
           C 933.98,349.00 890.75,349.00 890.75,349.00
             890.13,349.00 889.71,349.28 889.47,349.83
             886.28,356.32 882.70,362.31 878.72,367.81
             878.35,368.37 878.17,368.95 878.17,369.56
             878.17,369.56 878.17,408.03 878.17,408.03
             878.17,409.56 877.62,410.88 876.52,411.97
             875.41,413.07 874.08,413.62 872.52,413.62
             870.96,413.62 869.63,413.07 868.53,411.97
             867.43,410.88 866.88,409.56 866.88,408.03
             866.88,408.03 866.88,382.05 866.88,382.05
             866.88,381.86 866.80,381.73 866.64,381.64
             866.49,381.55 866.36,381.56 866.23,381.69
             865.32,382.48 864.40,383.24 863.48,383.97
             862.63,384.65 861.68,384.98 860.64,384.98
             860.21,384.98 859.79,384.92 859.36,384.80
             857.83,384.43 856.69,383.55 855.95,382.14
             855.35,381.10 855.05,380.03 855.05,378.92
             855.05,378.43 855.10,377.95 855.22,377.45
             855.59,375.81 856.42,374.46 857.70,373.42
             864.92,367.55 871.16,359.65 876.42,349.73
             876.55,349.55 876.55,349.38 876.42,349.23
             876.30,349.08 876.16,349.00 875.97,349.00
             875.97,349.00 861.66,349.00 861.66,349.00
             860.19,349.00 858.91,348.45 857.84,347.36
             856.77,346.26 856.23,344.95 856.23,343.45
             856.23,341.95 856.77,340.67 857.84,339.61
             858.91,338.54 860.19,338.00 861.66,338.00
             861.66,338.00 880.75,338.00 880.75,338.00
             881.35,338.00 881.75,337.70 881.94,337.08
             882.61,335.42 883.25,333.65 883.86,331.75
             884.35,330.11 885.33,328.85 886.80,327.98
             887.77,327.38 888.82,327.08 889.92,327.08
             890.41,327.08 890.93,327.14 891.48,327.25
             893.08,327.62 894.30,328.55 895.16,330.02
             895.64,330.87 895.89,331.76 895.89,332.67
             895.89,333.29 895.77,333.90 895.52,334.50
             895.21,335.43 894.91,336.29 894.61,337.08
             894.48,337.32 894.48,337.53 894.59,337.72
             894.72,337.91 894.91,338.00 895.16,338.00
             895.16,338.00 933.98,338.00 933.98,338.00
             935.45,338.00 936.72,338.54 937.80,339.61
             938.87,340.67 939.41,341.95 939.41,343.45
             939.41,344.95 938.87,346.26 937.80,347.36
             936.72,348.45 935.45,349.00 933.98,349.00 Z
           M 935.55,379.00
           C 937.02,379.00 938.25,379.50 939.27,380.50
             940.27,381.49 940.78,382.67 940.78,384.05
             940.78,385.42 940.27,386.59 939.27,387.56
             938.25,388.52 937.02,389.00 935.55,389.00
             935.55,389.00 919.75,389.00 919.75,389.00
             919.14,389.00 918.84,389.31 918.84,389.92
             918.84,389.92 918.84,400.75 918.84,400.75
             918.84,403.62 918.49,405.83 917.78,407.36
             917.08,408.89 915.75,410.08 913.80,410.94
             911.46,411.91 907.73,412.47 902.59,412.59
             902.53,412.59 902.47,412.59 902.41,412.59
             900.94,412.59 899.59,412.07 898.38,411.03
             897.08,409.99 896.19,408.67 895.70,407.08
             895.58,406.65 895.52,406.25 895.52,405.89
             895.52,405.04 895.79,404.27 896.34,403.59
             897.08,402.55 898.06,402.03 899.28,402.03
             899.34,402.03 899.38,402.03 899.38,402.03
             900.66,402.03 901.77,402.03 902.69,402.03
             903.91,402.03 904.85,402.00 905.53,401.94
             906.32,401.94 906.85,401.84 907.12,401.62
             907.41,401.41 907.55,401.02 907.55,400.47
             907.55,400.47 907.55,389.92 907.55,389.92
             907.55,389.31 907.24,389.00 906.62,389.00
             906.62,389.00 889.00,389.00 889.00,389.00
             887.59,389.00 886.37,388.52 885.33,387.56
             884.29,386.59 883.77,385.42 883.77,384.05
             883.77,382.67 884.29,381.49 885.33,380.50
             886.37,379.50 887.59,379.00 889.00,379.00
             889.00,379.00 906.81,379.00 906.81,379.00
             907.30,379.00 907.55,378.77 907.55,378.30
             907.55,378.30 907.55,374.67 907.55,374.67
             907.55,373.79 907.86,373.04 908.50,372.42
             909.14,371.80 909.93,371.48 910.86,371.48
             911.10,371.48 911.34,371.43 911.59,371.31
             913.43,369.90 915.20,368.34 916.92,366.62
             917.04,366.50 917.06,366.37 917.00,366.22
             916.95,366.07 916.83,366.00 916.64,366.00
             916.64,366.00 896.08,366.00 896.08,366.00
             894.67,366.00 893.48,365.52 892.50,364.55
             891.52,363.58 891.03,362.40 891.03,361.00
             891.03,359.61 891.52,358.42 892.50,357.45
             893.48,356.48 894.67,356.00 896.08,356.00
             896.08,356.00 926.45,356.00 926.45,356.00
             926.58,356.00 926.73,356.00 926.92,356.00
             927.29,355.89 927.65,355.83 928.02,355.83
             928.93,355.83 929.79,356.12 930.59,356.72
             930.59,356.72 932.52,358.14 932.52,358.14
             933.49,358.92 934.05,359.91 934.17,361.09
             934.17,361.22 934.17,361.37 934.17,361.55
             934.17,362.56 933.80,363.45 933.06,364.23
             928.78,368.77 924.29,372.86 919.58,376.50
             919.09,376.86 918.84,377.33 918.84,377.92
             918.84,377.92 918.84,378.11 918.84,378.11
             918.84,378.70 919.14,379.00 919.75,379.00
             919.75,379.00 935.55,379.00 935.55,379.00 Z" />
</svg>
