<svg xmlns="http://www.w3.org/2000/svg" width="128" height="128" fill="currentColor" class="bi bi-download" viewBox="-12.5 -19 40 40">
  <defs>
    <style>.logo-fill{fill:white;}</style>
    <style>.logo-stroke{stroke:white; stroke-width:0.2;}</style>
  </defs>
  <text class="logo-fill logo-stroke" x="8" y="-1" font-size="14" text-anchor="middle">GIF</text>
  <path class="logo-fill logo-stroke" d="M.5 9.9a.5.5 0 0 1 .5.5v2.5a1 1 0 0 0 1 1h12a1 1 0 0 0 1-1v-2.5a.5.5 0 0 1 1 0v2.5a2 2 0 0 1-2 2H2a2 2 0 0 1-2-2v-2.5a.5.5 0 0 1 .5-.5z"/>
  <path class="logo-fill logo-stroke" d="M7.646 11.854a.5.5 0 0 0 .708 0l3-3a.5.5 0 0 0-.708-.708L8.5 10.293V1.5a.5.5 0 0 0-1 0v8.793L5.354 8.146a.5.5 0 1 0-.708.708l3 3z"/>
</svg>