<?xml version="1.0" encoding="UTF-8" standalone="no"?>
<!DOCTYPE svg PUBLIC "-//W3C//DTD SVG 20010904//EN"
              "http://www.w3.org/TR/2001/REC-SVG-20010904/DTD/svg10.dtd">

<svg xmlns="http://www.w3.org/2000/svg"
     width="1.66667in" height="1.66667in"
     viewBox="0 0 1000 1000">
  <path id="パス #1"
        fill="white" stroke="black" stroke-width="3"
        d="M 179.19,379.30
           C 179.19,379.30 327.97,379.30 327.97,379.30
             334.54,379.54 340.00,382.01 344.34,386.70
             348.70,391.40 350.88,397.04 350.88,403.62
             349.70,417.73 342.06,425.37 327.97,426.53
             327.97,426.53 191.17,426.53 191.17,426.53
             182.24,427.00 174.84,430.41 168.97,436.77
             163.09,443.11 158.80,450.34 156.09,458.45
             153.39,466.56 152.05,474.84 152.05,483.30
             152.05,491.76 153.39,500.04 156.09,508.16
             158.80,516.26 163.09,523.48 168.97,529.83
             174.84,536.17 182.24,539.58 191.17,540.05
             191.17,540.05 298.34,540.05 298.34,540.05
             302.58,539.82 304.82,537.47 305.05,533.00
             305.05,533.00 305.05,512.56 305.05,512.56
             304.82,507.86 302.58,505.50 298.34,505.50
             298.34,505.50 208.09,505.50 208.09,505.50
             201.52,505.50 195.94,503.21 191.36,498.62
             186.77,494.04 184.48,488.46 184.48,481.89
             184.48,475.31 186.71,469.67 191.17,464.97
             195.88,460.50 201.52,458.27 208.09,458.27
             208.09,458.27 328.67,458.27 328.67,458.27
             335.25,458.27 340.89,460.50 345.59,464.97
             349.82,469.43 352.05,474.84 352.30,481.19
             352.30,481.19 352.30,564.38 352.30,564.38
             352.05,570.72 349.82,576.01 345.59,580.25
             341.12,584.71 335.72,587.06 329.38,587.30
             329.38,587.30 179.19,587.30 179.19,587.30
             162.74,586.36 149.16,580.07 138.47,568.44
             127.78,556.80 120.14,543.59 115.56,528.78
             110.98,513.97 108.69,498.81 108.69,483.30
             108.69,467.79 111.04,452.63 115.73,437.83
             120.43,423.02 128.07,409.79 138.64,398.16
             149.22,386.52 162.74,380.23 179.19,379.30 Z
           M 390.81,563.67
           C 390.81,557.09 393.10,551.51 397.69,546.92
             402.27,542.34 407.85,540.05 414.42,540.05
             414.42,540.05 482.11,540.05 482.11,540.05
             482.11,540.05 482.11,426.53 482.11,426.53
             482.11,426.53 414.42,426.53 414.42,426.53
             407.85,426.53 402.33,424.18 397.86,419.48
             393.16,415.02 390.81,409.50 390.81,402.92
             390.81,396.34 393.10,390.76 397.69,386.17
             402.27,381.59 407.85,379.30 414.42,379.30
             414.42,379.30 597.05,379.30 597.05,379.30
             603.62,379.30 609.26,381.53 613.97,386.00
             618.43,390.70 620.66,396.34 620.66,402.92
             620.66,409.50 618.36,415.07 613.78,419.66
             609.20,424.24 603.62,426.53 597.05,426.53
             597.05,426.53 529.70,426.53 529.70,426.53
             529.70,426.53 529.70,540.05 529.70,540.05
             529.70,540.05 597.05,540.05 597.05,540.05
             603.62,540.05 609.26,542.28 613.97,546.75
             618.43,551.45 620.66,557.09 620.66,563.67
             620.66,570.26 618.36,575.84 613.78,580.42
             609.20,585.01 603.62,587.30 597.05,587.30
             597.05,587.30 414.42,587.30 414.42,587.30
             407.85,587.30 402.33,584.95 397.86,580.25
             393.16,575.78 390.81,570.26 390.81,563.67 Z
           M 683.53,591.53
           C 677.19,591.29 671.78,589.00 667.31,584.66
             662.85,580.30 660.50,574.95 660.27,568.61
             660.27,568.61 660.27,480.83 660.27,480.83
             660.50,464.14 662.85,448.40 667.31,433.59
             672.02,418.78 679.72,406.27 690.41,396.05
             701.10,385.82 714.68,380.23 731.12,379.30
             731.12,379.30 867.20,379.30 867.20,379.30
             873.55,379.54 878.91,381.83 883.25,386.17
             887.59,390.52 889.88,395.87 890.12,402.22
             890.12,408.79 887.95,414.43 883.59,419.14
             879.25,423.84 873.79,426.30 867.20,426.53
             867.20,426.53 743.11,426.53 743.11,426.53
             734.18,427.00 726.78,430.41 720.91,436.77
             715.03,443.11 711.33,450.34 709.80,458.45
             708.27,466.56 707.63,475.43 707.86,485.06
             707.86,485.06 707.86,568.61 707.86,568.61
             707.63,575.20 705.16,580.66 700.45,585.02
             695.75,589.36 690.11,591.53 683.53,591.53 Z
           M 724.44,498.81
           C 724.44,492.23 726.79,486.70 731.48,482.23
             735.94,477.54 741.46,475.19 748.05,475.19
             748.05,475.19 867.20,475.19 867.20,475.19
             873.79,475.19 879.37,477.48 883.95,482.06
             888.54,486.65 890.83,492.23 890.83,498.81
             890.83,505.39 888.59,511.03 884.12,515.73
             879.43,520.20 873.79,522.42 867.20,522.42
             867.20,522.42 748.05,522.42 748.05,522.42
             741.46,522.42 735.88,520.13 731.30,515.55
             726.72,510.96 724.44,505.39 724.44,498.81 Z" />
</svg>
