<?xml version="1.0" encoding="UTF-8" standalone="no"?>
<!DOCTYPE svg PUBLIC "-//W3C//DTD SVG 20010904//EN"
              "http://www.w3.org/TR/2001/REC-SVG-20010904/DTD/svg10.dtd">

<svg xmlns="http://www.w3.org/2000/svg"
     width="1.66667in" height="1.66667in"
     viewBox="0 0 1000 1000">
  <path id="パス"
        fill="white" stroke="black" stroke-width="3"
        d="M 143.80,568.61
           C 142.39,582.71 134.63,590.35 120.53,591.53
             113.96,591.53 108.26,589.36 103.44,585.02
             98.61,580.66 96.20,575.20 96.20,568.61
             96.20,568.61 96.20,402.22 96.20,402.22
             96.44,395.64 98.91,390.17 103.61,385.83
             108.32,381.48 113.96,379.30 120.53,379.30
             120.53,379.30 268.61,379.30 268.61,379.30
             289.29,380.01 304.91,384.53 315.48,392.88
             326.07,401.22 333.71,410.68 338.41,421.25
             343.10,431.82 345.45,442.52 345.45,453.33
             345.45,464.61 343.16,475.54 338.58,486.12
             333.99,496.70 326.35,506.16 315.66,514.50
             304.97,522.84 291.40,526.90 274.95,526.66
             274.95,526.66 186.11,526.66 186.11,526.66
             179.52,526.66 174.00,524.31 169.53,519.61
             164.83,515.14 162.48,509.62 162.48,503.03
             162.48,496.46 164.77,490.88 169.36,486.30
             173.94,481.71 179.52,479.42 186.11,479.42
             186.11,479.42 277.06,479.42 277.06,479.42
             281.53,479.42 285.23,477.95 288.17,475.02
             291.11,472.08 293.28,468.67 294.69,464.80
             296.10,460.91 296.81,456.98 296.81,452.98
             296.81,449.23 296.10,445.41 294.69,441.53
             293.28,437.65 291.11,434.23 288.17,431.30
             285.23,428.36 281.53,426.77 277.06,426.53
             277.06,426.53 152.97,426.53 152.97,426.53
             146.85,426.77 143.80,429.83 143.80,435.70
             143.80,435.70 143.80,568.61 143.80,568.61 Z
           M 497.67,370.00
           C 509.89,370.00 521.93,371.40 533.80,374.19
             545.67,376.98 557.02,381.12 567.83,386.59
             578.64,392.06 588.22,399.35 596.56,408.45
             604.91,417.56 609.43,428.45 610.12,441.14
             610.12,441.14 610.12,568.41 610.12,568.41
             608.72,582.51 600.96,590.15 586.86,591.33
             580.27,591.33 574.57,589.16 569.75,584.81
             564.94,580.46 562.53,574.99 562.53,568.41
             562.53,568.41 562.53,452.06 562.53,452.06
             562.06,444.78 559.30,438.73 554.25,433.92
             549.20,429.10 543.55,425.28 537.33,422.45
             531.10,419.63 524.63,417.52 517.94,416.11
             511.24,414.70 504.48,414.00 497.67,414.00
             490.86,414.00 484.10,414.70 477.41,416.11
             470.71,417.52 464.24,419.63 458.02,422.45
             451.79,425.28 446.14,429.10 441.09,433.92
             436.04,438.73 433.27,444.78 432.80,452.06
             432.80,452.06 432.80,568.41 432.80,568.41
             431.63,582.51 423.99,590.15 409.89,591.33
             403.30,591.33 397.60,589.16 392.78,584.81
             387.97,580.46 385.56,574.99 385.56,568.41
             385.56,568.41 385.56,441.14 385.56,441.14
             386.27,428.45 390.73,417.56 398.95,408.45
             407.18,399.35 416.70,392.06 427.52,386.59
             438.33,381.12 449.66,376.98 461.53,374.19
             473.41,371.40 485.45,370.00 497.67,370.00 Z
           M 723.19,379.30
           C 723.19,379.30 871.97,379.30 871.97,379.30
             878.54,379.54 884.00,382.01 888.34,386.70
             892.70,391.40 894.88,397.04 894.88,403.62
             893.70,417.73 886.06,425.37 871.97,426.53
             871.97,426.53 735.17,426.53 735.17,426.53
             726.24,427.00 718.84,430.41 712.97,436.77
             707.09,443.11 702.80,450.34 700.09,458.45
             697.39,466.56 696.05,474.84 696.05,483.30
             696.05,491.76 697.39,500.04 700.09,508.16
             702.80,516.26 707.09,523.48 712.97,529.83
             718.84,536.17 726.24,539.58 735.17,540.05
             735.17,540.05 842.34,540.05 842.34,540.05
             846.58,539.82 848.82,537.47 849.05,533.00
             849.05,533.00 849.05,512.56 849.05,512.56
             848.82,507.86 846.58,505.50 842.34,505.50
             842.34,505.50 752.09,505.50 752.09,505.50
             745.52,505.50 739.94,503.21 735.36,498.62
             730.77,494.04 728.48,488.46 728.48,481.89
             728.48,475.31 730.71,469.67 735.17,464.97
             739.88,460.50 745.52,458.27 752.09,458.27
             752.09,458.27 872.67,458.27 872.67,458.27
             879.25,458.27 884.89,460.50 889.59,464.97
             893.82,469.43 896.05,474.84 896.30,481.19
             896.30,481.19 896.30,564.38 896.30,564.38
             896.05,570.72 893.82,576.01 889.59,580.25
             885.12,584.71 879.72,587.06 873.38,587.30
             873.38,587.30 723.19,587.30 723.19,587.30
             706.74,586.36 693.16,580.07 682.47,568.44
             671.78,556.80 664.14,543.59 659.56,528.78
             654.98,513.97 652.69,498.81 652.69,483.30
             652.69,467.79 655.04,452.63 659.73,437.83
             664.43,423.02 672.07,409.79 682.64,398.16
             693.22,386.52 706.74,380.23 723.19,379.30 Z" />
</svg>
