<?xml version="1.0" encoding="UTF-8" standalone="no"?>
<!DOCTYPE svg PUBLIC "-//W3C//DTD SVG 20010904//EN"
              "http://www.w3.org/TR/2001/REC-SVG-20010904/DTD/svg10.dtd">

<svg xmlns="http://www.w3.org/2000/svg"
     width="1.66667in" height="1.66667in"
     viewBox="0 0 1000 1000">
  <path id="パス #3"
        fill="white" stroke="black" stroke-width="3"
        d="M 48.16,433.11
           C 48.16,427.54 50.09,422.81 53.97,418.92
             57.85,415.04 62.59,413.09 68.17,413.09
             68.17,413.09 242.09,413.09 242.09,413.09
             247.66,413.09 252.45,414.98 256.44,418.77
             260.22,422.76 262.11,427.54 262.11,433.11
             262.11,438.70 260.16,443.43 256.28,447.31
             252.39,451.20 247.66,453.14 242.09,453.14
             242.09,453.14 175.45,453.14 175.45,453.14
             175.45,453.14 175.45,574.16 175.45,574.16
             174.25,586.12 167.68,592.59 155.73,593.59
             150.15,593.59 145.32,591.75 141.23,588.06
             137.15,584.38 135.11,579.74 135.11,574.16
             135.11,574.16 135.11,453.14 135.11,453.14
             135.11,453.14 68.17,453.14 68.17,453.14
             62.59,453.14 57.91,451.15 54.12,447.16
             50.14,443.38 48.16,438.70 48.16,433.11 Z
           M 337.16,593.00
           C 332.20,593.00 327.27,592.11 322.39,590.33
             317.50,588.56 312.80,585.93 308.28,582.45
             303.76,578.96 299.82,574.34 296.47,568.59
             293.11,562.84 291.29,556.03 291.00,548.16
             291.00,548.16 291.00,501.56 291.00,501.56
             291.00,497.48 292.49,494.09 295.48,491.39
             298.47,488.70 302.01,487.34 306.09,487.34
             314.84,488.07 319.58,492.81 320.31,501.56
             320.31,501.56 320.31,546.41 320.31,546.41
             320.46,549.91 321.19,552.86 322.50,555.27
             323.81,557.67 325.27,559.57 326.88,560.95
             328.48,562.34 330.12,563.36 331.80,564.02
             333.47,564.67 335.19,565.00 336.94,565.00
             338.69,565.00 340.44,564.67 342.19,564.02
             343.94,563.36 345.61,562.34 347.22,560.95
             348.82,559.57 350.28,557.67 351.59,555.27
             352.91,552.86 353.56,549.91 353.56,546.41
             353.56,546.41 353.56,501.56 353.56,501.56
             353.56,497.48 355.05,494.09 358.05,491.39
             361.04,488.70 364.57,487.34 368.66,487.34
             377.41,488.07 382.22,492.81 383.09,501.56
             383.09,501.56 383.09,546.41 383.09,546.41
             383.24,549.91 383.97,552.82 385.28,555.16
             386.59,557.64 388.05,559.57 389.66,560.95
             391.26,562.34 392.90,563.36 394.58,564.02
             396.25,564.67 397.97,565.00 399.72,565.00
             401.47,565.00 403.22,564.67 404.97,564.02
             406.72,563.36 408.39,562.34 410.00,560.95
             411.60,559.57 413.06,557.67 414.38,555.27
             415.69,552.86 416.34,549.91 416.34,546.41
             416.34,546.41 416.34,501.56 416.34,501.56
             416.34,497.48 417.84,494.09 420.83,491.39
             423.82,488.70 427.35,487.34 431.44,487.34
             440.19,488.07 445.00,492.81 445.88,501.56
             445.88,501.56 445.88,548.16 445.88,548.16
             445.88,556.03 444.16,562.84 440.73,568.59
             437.30,574.34 433.37,578.96 428.92,582.45
             424.47,585.93 419.80,588.56 414.92,590.33
             410.04,592.11 405.04,593.00 399.94,593.00
             394.98,593.00 390.05,592.12 385.17,590.38
             380.29,588.62 375.58,586.00 371.06,582.50
             370.19,581.92 369.38,581.26 368.66,580.53
             367.78,581.26 366.98,581.92 366.25,582.50
             361.73,586.00 357.02,588.62 352.14,590.38
             347.25,592.12 342.26,593.00 337.16,593.00 Z
           M 521.62,590.00
           C 508.79,589.56 499.09,586.52 492.53,580.86
             485.97,575.20 481.23,568.82 478.31,561.70
             475.39,554.58 473.94,547.34 473.94,540.00
             473.94,532.37 475.36,524.99 478.20,517.88
             481.05,510.75 485.79,504.36 492.42,498.70
             499.05,493.05 507.48,490.15 517.69,490.00
             517.69,490.00 600.81,490.00 600.81,490.00
             604.89,490.00 608.32,491.40 611.09,494.19
             614.01,496.84 615.47,500.07 615.47,503.89
             615.47,507.86 614.05,511.20 611.20,513.92
             608.36,516.64 604.89,518.00 600.81,518.00
             600.81,518.00 519.00,518.00 519.00,518.00
             515.79,518.00 512.98,519.11 510.58,521.31
             508.17,523.52 506.42,526.39 505.33,529.92
             504.23,533.45 503.69,536.90 503.69,540.28
             503.69,543.96 504.23,547.56 505.33,551.09
             506.42,554.62 508.17,557.45 510.58,559.58
             512.98,561.71 515.79,562.86 519.00,563.00
             519.00,563.00 600.81,563.00 600.81,563.00
             604.89,563.00 608.36,564.32 611.20,566.95
             614.05,569.59 615.47,572.73 615.47,576.39
             615.47,580.20 614.01,583.41 611.09,586.05
             608.32,588.68 604.89,590.00 600.81,590.00
             600.81,590.00 521.62,590.00 521.62,590.00 Z
           M 612.84,539.89
           C 612.84,542.67 611.60,545.09 609.12,547.14
             606.94,549.05 604.16,550.00 600.81,550.00
             600.81,550.00 529.28,550.00 529.28,550.00
             525.93,550.00 523.08,549.01 520.75,547.03
             518.41,545.05 517.25,542.67 517.25,539.89
             517.25,537.26 518.41,534.91 520.75,532.86
             523.08,530.95 525.93,530.00 529.28,530.00
             529.28,530.00 600.81,530.00 600.81,530.00
             604.16,530.00 607.01,530.99 609.34,532.97
             611.68,534.95 612.84,537.26 612.84,539.89 Z
           M 687.62,590.00
           C 674.79,589.56 665.09,586.52 658.53,580.86
             651.97,575.20 647.23,568.82 644.31,561.70
             641.39,554.58 639.94,547.34 639.94,540.00
             639.94,532.37 641.36,524.99 644.20,517.88
             647.05,510.75 651.79,504.36 658.42,498.70
             665.05,493.05 673.48,490.15 683.69,490.00
             683.69,490.00 766.81,490.00 766.81,490.00
             770.89,490.00 774.32,491.40 777.09,494.19
             780.01,496.84 781.47,500.07 781.47,503.89
             781.47,507.86 780.05,511.20 777.20,513.92
             774.36,516.64 770.89,518.00 766.81,518.00
             766.81,518.00 685.00,518.00 685.00,518.00
             681.79,518.00 678.98,519.11 676.58,521.31
             674.17,523.52 672.42,526.39 671.33,529.92
             670.23,533.45 669.69,536.90 669.69,540.28
             669.69,543.96 670.23,547.56 671.33,551.09
             672.42,554.62 674.17,557.45 676.58,559.58
             678.98,561.71 681.79,562.86 685.00,563.00
             685.00,563.00 766.81,563.00 766.81,563.00
             770.89,563.00 774.36,564.32 777.20,566.95
             780.05,569.59 781.47,572.73 781.47,576.39
             781.47,580.20 780.01,583.41 777.09,586.05
             774.32,588.68 770.89,590.00 766.81,590.00
             766.81,590.00 687.62,590.00 687.62,590.00 Z
           M 778.84,539.89
           C 778.84,542.67 777.60,545.09 775.12,547.14
             772.94,549.05 770.16,550.00 766.81,550.00
             766.81,550.00 695.28,550.00 695.28,550.00
             691.93,550.00 689.08,549.01 686.75,547.03
             684.41,545.05 683.25,542.67 683.25,539.89
             683.25,537.26 684.41,534.91 686.75,532.86
             689.08,530.95 691.93,530.00 695.28,530.00
             695.28,530.00 766.81,530.00 766.81,530.00
             770.16,530.00 773.01,530.99 775.34,532.97
             777.68,534.95 778.84,537.26 778.84,539.89 Z
           M 856.25,457.00
           C 860.33,457.00 863.83,458.35 866.75,461.05
             869.66,463.75 871.20,467.14 871.34,471.22
             871.34,471.22 871.34,490.25 871.34,490.25
             871.34,490.25 945.72,490.25 945.72,490.25
             949.80,490.25 953.30,491.64 956.22,494.41
             958.99,497.32 960.38,500.82 960.38,504.91
             960.38,508.99 958.95,512.45 956.11,515.30
             953.27,518.14 949.80,519.56 945.72,519.56
             945.72,519.56 871.34,519.56 871.34,519.56
             871.34,519.56 871.34,523.94 871.34,523.94
             871.20,529.92 871.60,535.42 872.55,540.45
             873.49,545.48 875.79,549.97 879.44,553.91
             883.08,557.84 887.68,559.96 893.22,560.25
             893.22,560.25 946.59,560.25 946.59,560.25
             950.68,560.40 954.07,561.93 956.77,564.84
             959.46,567.76 960.81,571.26 960.81,575.34
             960.66,579.28 959.24,582.60 956.55,585.30
             953.85,588.00 950.53,589.42 946.59,589.56
             946.59,589.56 885.78,589.56 885.78,589.56
             875.57,588.98 867.15,585.52 860.52,579.17
             853.88,572.83 849.10,565.06 846.19,555.88
             843.41,546.69 841.96,536.92 841.81,526.56
             841.81,526.56 841.81,519.56 841.81,519.56
             841.81,519.56 816.66,519.56 816.66,519.56
             812.57,519.56 809.14,518.11 806.38,515.19
             803.46,512.42 802.00,508.99 802.00,504.91
             802.00,500.82 803.42,497.36 806.27,494.52
             809.11,491.67 812.57,490.25 816.66,490.25
             816.66,490.25 841.81,490.25 841.81,490.25
             841.81,490.25 841.81,471.22 841.81,471.22
             841.96,467.28 843.41,463.96 846.19,461.27
             848.96,458.57 852.31,457.15 856.25,457.00 Z" />
</svg>
