<svg xmlns="http://www.w3.org/2000/svg" width="128" height="128" fill="currentColor" class="bi bi-twitter" viewBox="-8.2 -6.7 32 32">
  <defs>
    <style>.logo-fill{fill:#00ACED;}</style>
    <style>.logo-stroke{stroke:black; stroke-width:0.0;}</style>
  </defs>
  <path class="logo-fill logo-stroke" d="M5.026 15c6.038 0 9.341-5.003 9.341-9.334 0-.14 0-.282-.006-.422A6.685 6.685 0 0 0 16 3.542a6.658 6.658 0 0 1-1.889.518 3.301 3.301 0 0 0 1.447-1.817 6.533 6.533 0 0 1-2.087.793A3.286 3.286 0 0 0 7.875 6.03a9.325 9.325 0 0 1-6.767-3.429 3.289 3.289 0 0 0 1.018 4.382A3.323 3.323 0 0 1 .64 6.575v.045a3.288 3.288 0 0 0 2.632 3.218 3.203 3.203 0 0 1-.865.115 3.23 3.23 0 0 1-.614-.057 3.283 3.283 0 0 0 3.067 2.277A6.588 6.588 0 0 1 .78 13.58a6.32 6.32 0 0 1-.78-.045A9.344 9.344 0 0 0 5.026 15z"/>

  <path id="パス #2"
        fill="white" stroke="black" stroke-width="3"
        d="M 56.55,563.38
           C 56.55,557.80 58.49,553.07 62.38,549.19
             66.26,545.30 70.99,543.36 76.58,543.36
             76.58,543.36 133.95,543.36 133.95,543.36
             133.95,543.36 133.95,447.14 133.95,447.14
             133.95,447.14 76.58,447.14 76.58,447.14
             70.99,447.14 66.31,445.15 62.53,441.16
             58.54,437.38 56.55,432.70 56.55,427.11
             56.55,421.54 58.49,416.81 62.38,412.92
             66.26,409.04 70.99,407.09 76.58,407.09
             76.58,407.09 231.36,407.09 231.36,407.09
             236.94,407.09 241.72,408.98 245.70,412.77
             249.49,416.76 251.39,421.54 251.39,427.11
             251.39,432.70 249.45,437.43 245.56,441.31
             241.68,445.20 236.94,447.14 231.36,447.14
             231.36,447.14 174.30,447.14 174.30,447.14
             174.30,447.14 174.30,543.36 174.30,543.36
             174.30,543.36 231.36,543.36 231.36,543.36
             236.94,543.36 241.72,545.25 245.70,549.03
             249.49,553.02 251.39,557.80 251.39,563.38
             251.39,568.96 249.45,573.70 245.56,577.58
             241.68,581.46 236.94,583.41 231.36,583.41
             231.36,583.41 76.58,583.41 76.58,583.41
             70.99,583.41 66.31,581.41 62.53,577.42
             58.54,573.64 56.55,568.96 56.55,563.38 Z
           M 351.95,447.14
           C 344.39,447.54 338.07,450.43 332.98,455.81
             327.90,461.19 324.27,467.31 322.08,474.19
             319.89,481.05 318.80,488.07 318.80,495.25
             318.80,502.42 319.84,509.49 321.92,516.47
             324.02,523.44 327.65,529.56 332.83,534.84
             338.02,540.12 344.39,542.96 351.95,543.36
             351.95,543.36 450.58,543.36 450.58,543.36
             463.13,544.56 470.00,551.43 471.19,563.98
             470.99,569.56 468.89,574.19 464.91,577.88
             460.93,581.56 456.15,583.41 450.58,583.41
             450.58,583.41 341.50,583.41 341.50,583.41
             327.55,582.61 316.09,577.28 307.12,567.42
             298.16,557.56 291.74,546.35 287.86,533.80
             283.97,521.25 282.03,508.40 282.03,495.25
             282.03,485.49 283.12,475.83 285.31,466.27
             287.51,456.70 290.95,447.59 295.62,438.92
             300.31,430.26 306.59,422.84 314.45,416.66
             322.33,410.48 331.34,407.29 341.50,407.09
             341.50,407.09 450.58,407.09 450.58,407.09
             463.13,408.29 470.00,415.17 471.19,427.72
             471.19,433.29 469.14,437.92 465.06,441.61
             460.98,445.30 456.15,447.14 450.58,447.14
             450.58,447.14 351.95,447.14 351.95,447.14 Z
           M 661.30,407.09
           C 671.46,407.29 680.53,410.48 688.50,416.66
             696.47,422.84 702.89,430.21 707.77,438.78
             712.65,447.34 716.29,456.41 718.67,465.97
             721.07,475.53 722.27,485.29 722.27,495.25
             722.27,508.40 720.22,521.30 716.14,533.95
             712.05,546.60 705.38,557.80 696.11,567.56
             686.85,577.32 675.24,582.61 661.30,583.41
             661.30,583.41 557.02,583.41 557.02,583.41
             543.07,582.80 531.41,577.62 522.05,567.86
             512.68,558.10 506.05,546.84 502.17,534.09
             498.29,521.34 496.34,508.40 496.34,495.25
             496.34,482.11 498.33,469.21 502.31,456.56
             506.30,443.91 512.93,432.65 522.19,422.78
             531.46,412.92 543.07,407.69 557.02,407.09
             557.02,407.09 661.30,407.09 661.30,407.09 Z
           M 651.14,543.36
           C 658.71,542.96 665.04,540.12 670.11,534.84
             675.19,529.56 678.83,523.44 681.02,516.47
             683.21,509.49 684.31,502.42 684.31,495.25
             684.31,488.07 683.16,481.05 680.88,474.19
             678.58,467.31 674.95,461.19 669.97,455.81
             664.99,450.43 658.71,447.54 651.14,447.14
             651.14,447.14 566.27,447.14 566.27,447.14
             558.69,447.54 552.41,450.43 547.44,455.81
             542.46,461.19 538.82,467.31 536.53,474.19
             534.24,481.05 533.09,488.07 533.09,495.25
             533.09,502.42 534.19,509.49 536.38,516.47
             538.57,523.44 542.21,529.56 547.28,534.84
             552.36,540.12 558.69,542.96 566.27,543.36
             566.27,543.36 651.14,543.36 651.14,543.36 Z
           M 852.16,399.00
           C 862.51,399.00 872.72,400.21 882.78,402.62
             892.84,405.03 902.45,408.60 911.61,413.33
             920.77,418.05 928.89,424.32 935.97,432.14
             943.04,439.96 946.88,449.26 947.48,460.02
             947.48,460.02 947.48,567.89 947.48,567.89
             946.29,579.85 939.71,586.32 927.75,587.31
             922.18,587.31 917.35,585.47 913.27,581.80
             909.18,578.11 907.14,573.48 907.14,567.89
             907.14,567.89 907.14,469.28 907.14,469.28
             906.74,463.11 904.40,457.98 900.11,453.89
             895.83,449.81 891.05,446.57 885.77,444.19
             880.49,441.79 875.02,440.00 869.33,438.80
             863.65,437.60 857.93,437.00 852.16,437.00
             846.38,437.00 840.64,437.60 834.97,438.80
             829.29,440.00 823.81,441.79 818.53,444.19
             813.25,446.57 808.47,449.81 804.19,453.89
             799.91,457.98 797.57,463.11 797.17,469.28
             797.17,469.28 797.17,567.89 797.17,567.89
             796.17,579.85 789.70,586.32 777.75,587.31
             772.16,587.31 767.33,585.47 763.25,581.80
             759.16,578.11 757.12,573.48 757.12,567.89
             757.12,567.89 757.12,460.02 757.12,460.02
             757.72,449.26 761.50,439.96 768.47,432.14
             775.45,424.32 783.52,418.05 792.69,413.33
             801.85,408.60 811.46,405.03 821.52,402.62
             831.58,400.21 841.79,399.00 852.16,399.00 Z" />
</svg>