<?xml version="1.0" encoding="UTF-8" standalone="no"?>
<!DOCTYPE svg PUBLIC "-//W3C//DTD SVG 20010904//EN"
              "http://www.w3.org/TR/2001/REC-SVG-20010904/DTD/svg10.dtd">

<svg xmlns="http://www.w3.org/2000/svg"
     width="1.66667in" height="1in"
     viewBox="0 100 1000 600">
  <path id="パス #7"
        fill="white" stroke="white" stroke-width="2"
        d="M 114.31,361.62
           C 114.31,358.81 115.29,356.43 117.25,354.48
             119.21,352.53 121.59,351.55 124.39,351.55
             124.39,351.55 153.27,351.55 153.27,351.55
             153.27,351.55 153.27,303.12 153.27,303.12
             153.27,303.12 124.39,303.12 124.39,303.12
             121.59,303.12 119.23,302.12 117.33,300.11
             115.32,298.20 114.31,295.85 114.31,293.05
             114.31,290.23 115.29,287.86 117.25,285.91
             119.21,283.95 121.59,282.97 124.39,282.97
             124.39,282.97 202.30,282.97 202.30,282.97
             205.10,282.97 207.50,283.92 209.52,285.83
             211.42,287.83 212.38,290.23 212.38,293.05
             212.38,295.85 211.39,298.23 209.44,300.19
             207.48,302.15 205.10,303.12 202.30,303.12
             202.30,303.12 173.58,303.12 173.58,303.12
             173.58,303.12 173.58,351.55 173.58,351.55
             173.58,351.55 202.30,351.55 202.30,351.55
             205.10,351.55 207.50,352.50 209.52,354.41
             211.42,356.41 212.38,358.81 212.38,361.62
             212.38,364.43 211.39,366.81 209.44,368.77
             207.48,370.73 205.10,371.70 202.30,371.70
             202.30,371.70 124.39,371.70 124.39,371.70
             121.59,371.70 119.23,370.70 117.33,368.69
             115.32,366.78 114.31,364.43 114.31,361.62 Z
           M 260.00,371.70
           C 251.18,371.40 244.51,369.32 240.00,365.47
             235.49,361.61 232.23,357.24 230.22,352.38
             228.22,347.51 227.22,342.57 227.22,337.56
             227.22,332.34 228.19,327.31 230.14,322.45
             232.10,317.59 235.36,313.23 239.92,309.38
             244.48,305.51 250.27,303.53 257.30,303.42
             257.30,303.42 314.45,303.42 314.45,303.42
             317.25,303.42 319.61,304.42 321.52,306.42
             323.52,308.33 324.52,310.69 324.52,313.50
             324.52,316.30 323.54,318.68 321.58,320.64
             319.63,322.60 317.25,323.58 314.45,323.58
             314.45,323.58 256.70,323.58 256.70,323.58
             254.80,323.58 253.14,324.36 251.73,325.91
             250.33,327.46 249.30,329.27 248.64,331.33
             247.99,333.38 247.67,335.41 247.67,337.41
             247.67,339.51 247.99,341.59 248.64,343.66
             249.30,345.71 250.33,347.51 251.73,349.06
             253.14,350.62 254.80,351.45 256.70,351.55
             256.70,351.55 314.45,351.55 314.45,351.55
             317.25,351.55 319.63,352.53 321.58,354.48
             323.54,356.43 324.52,358.81 324.52,361.62
             324.52,364.43 323.52,366.78 321.52,368.69
             319.61,370.70 317.25,371.70 314.45,371.70
             314.45,371.70 260.00,371.70 260.00,371.70 Z
           M 373.61,371.70
           C 364.79,371.40 358.12,369.32 353.61,365.47
             349.10,361.61 345.84,357.24 343.83,352.38
             341.83,347.51 340.83,342.57 340.83,337.56
             340.83,332.34 341.80,327.31 343.75,322.45
             345.71,317.59 348.97,313.23 353.53,309.38
             358.09,305.51 363.88,303.53 370.91,303.42
             370.91,303.42 419.62,303.42 419.62,303.42
             426.64,303.53 432.44,305.51 437.00,309.38
             441.56,313.23 444.82,317.59 446.77,322.45
             448.72,327.31 449.70,332.34 449.70,337.56
             449.70,342.57 448.70,347.51 446.69,352.38
             444.69,357.24 441.43,361.61 436.92,365.47
             432.41,369.32 425.74,371.40 416.92,371.70
             416.92,371.70 373.61,371.70 373.61,371.70 Z
           M 370.30,323.58
           C 368.39,323.58 366.73,324.36 365.33,325.91
             363.93,327.46 362.91,329.27 362.25,331.33
             361.60,333.38 361.28,335.41 361.28,337.41
             361.28,339.51 361.60,341.59 362.25,343.66
             362.91,345.71 363.93,347.51 365.33,349.06
             366.73,350.62 368.39,351.45 370.30,351.55
             370.30,351.55 420.23,351.55 420.23,351.55
             422.13,351.45 423.78,350.62 425.19,349.06
             426.59,347.51 427.62,345.71 428.27,343.66
             428.92,341.59 429.25,339.51 429.25,337.41
             429.25,335.41 428.92,333.38 428.27,331.33
             427.62,329.27 426.59,327.46 425.19,325.91
             423.78,324.36 422.13,323.58 420.23,323.58
             420.23,323.58 370.30,323.58 370.30,323.58 Z
           M 517.45,301.00
           C 522.66,301.00 527.80,301.61 532.86,302.81
             537.92,304.02 542.76,305.81 547.38,308.17
             551.99,310.53 556.07,313.67 559.62,317.59
             563.19,321.51 565.12,326.17 565.42,331.58
             565.42,331.58 565.42,363.62 565.42,363.62
             564.82,369.64 561.51,372.89 555.50,373.39
             552.69,373.39 550.25,372.46 548.20,370.61
             546.15,368.76 545.12,366.43 545.12,363.62
             545.12,363.62 545.12,336.25 545.12,336.25
             544.93,333.14 543.75,330.55 541.59,328.50
             539.44,326.45 537.03,324.82 534.38,323.62
             531.72,322.42 528.96,321.51 526.09,320.91
             523.24,320.30 520.36,320.00 517.45,320.00
             514.55,320.00 511.66,320.30 508.80,320.91
             505.94,321.51 503.19,322.42 500.53,323.62
             497.88,324.82 495.47,326.45 493.31,328.50
             491.16,330.55 489.98,333.14 489.78,336.25
             489.78,336.25 489.78,363.62 489.78,363.62
             489.28,369.64 486.02,372.89 480.00,373.39
             477.20,373.39 474.77,372.46 472.70,370.61
             470.65,368.76 469.62,366.43 469.62,363.62
             469.62,363.62 469.62,331.58 469.62,331.58
             469.93,326.17 471.83,321.51 475.34,317.59
             478.85,313.67 482.91,310.53 487.52,308.17
             492.13,305.81 496.97,304.02 502.03,302.81
             507.09,301.61 512.23,301.00 517.45,301.00 Z
           M 608.23,274.14
           C 607.23,274.14 606.73,274.64 606.73,275.62
             606.73,275.62 606.73,284.14 606.73,284.14
             606.73,286.63 605.81,288.80 603.97,290.64
             602.12,292.48 599.93,293.41 597.39,293.41
             594.85,293.41 592.68,292.48 590.89,290.64
             589.10,288.80 588.20,286.63 588.20,284.14
             588.20,284.14 588.20,270.09 588.20,270.09
             588.20,266.51 589.47,263.45 592.02,260.91
             594.55,258.37 597.62,257.09 601.20,257.09
             601.20,257.09 641.84,257.09 641.84,257.09
             642.84,257.09 643.34,256.60 643.34,255.61
             643.34,255.61 643.34,252.17 643.34,252.17
             643.34,249.48 644.29,247.22 646.17,245.38
             648.07,243.53 650.36,242.61 653.05,242.61
             655.74,242.61 658.01,243.53 659.84,245.38
             661.69,247.22 662.61,249.48 662.61,252.17
             662.61,252.17 662.61,255.61 662.61,255.61
             662.61,256.60 663.11,257.09 664.11,257.09
             664.11,257.09 705.50,257.09 705.50,257.09
             709.08,257.09 712.14,258.37 714.69,260.91
             717.23,263.45 718.50,266.51 718.50,270.09
             718.50,270.09 718.50,283.70 718.50,283.70
             718.50,286.39 717.55,288.68 715.66,290.58
             713.76,292.46 711.47,293.41 708.78,293.41
             706.09,293.41 703.80,292.46 701.91,290.58
             700.02,288.68 699.08,286.39 699.08,283.70
             699.08,283.70 699.08,275.62 699.08,275.62
             699.08,274.64 698.58,274.14 697.58,274.14
             697.58,274.14 608.23,274.14 608.23,274.14 Z
           M 683.69,302.00
           C 683.69,302.00 621.83,302.00 621.83,302.00
             619.54,302.00 617.59,301.23 616.00,299.67
             614.41,298.12 613.61,296.26 613.61,294.08
             613.61,291.89 614.41,290.00 616.00,288.41
             617.59,286.80 619.54,286.00 621.83,286.00
             621.83,286.00 683.69,286.00 683.69,286.00
             685.98,286.00 687.92,286.80 689.52,288.41
             691.11,290.00 691.91,291.89 691.91,294.08
             691.91,296.26 691.11,298.12 689.52,299.67
             687.92,301.23 685.98,302.00 683.69,302.00 Z
           M 686.08,367.00
           C 686.08,367.00 701.02,367.00 701.02,367.00
             703.11,367.00 704.55,366.41 705.34,365.22
             706.14,364.02 706.69,361.43 706.98,357.44
             707.19,355.45 708.19,353.95 709.98,352.95
             710.97,352.36 712.02,352.06 713.11,352.06
             713.91,352.06 714.71,352.21 715.50,352.52
             718.00,353.51 719.94,355.10 721.33,357.30
             722.52,358.98 723.12,360.78 723.12,362.67
             723.12,363.17 723.08,363.72 722.98,364.31
             721.68,371.88 719.56,377.05 716.62,379.83
             713.69,382.61 709.08,384.00 702.81,384.00
             702.81,384.00 683.53,384.00 683.53,384.00
             674.76,384.00 668.85,382.41 665.81,379.23
             662.78,376.05 661.27,370.18 661.27,361.61
             661.27,361.61 661.27,331.52 661.27,331.52
             661.27,330.51 660.77,330.00 659.78,330.00
             659.78,330.00 642.89,330.00 642.89,330.00
             641.89,330.00 641.34,330.50 641.25,331.50
             640.35,337.78 639.16,343.26 637.66,347.94
             636.16,352.62 633.95,357.20 631.02,361.69
             628.08,366.17 624.09,370.12 619.06,373.56
             614.03,377.00 607.88,379.96 600.61,382.45
             599.52,382.85 598.42,383.05 597.33,383.05
             595.83,383.05 594.38,382.75 592.98,382.16
             590.49,380.96 588.45,379.16 586.86,376.78
             586.07,375.68 585.67,374.48 585.67,373.19
             585.67,372.39 585.82,371.65 586.11,370.95
             586.80,368.86 588.20,367.46 590.30,366.77
             596.08,364.98 600.91,362.91 604.80,360.56
             608.68,358.22 611.74,355.51 613.98,352.42
             616.22,349.33 617.86,346.19 618.91,343.00
             619.96,339.81 620.83,335.98 621.53,331.50
             621.53,331.11 621.41,330.76 621.16,330.45
             620.91,330.15 620.58,330.00 620.19,330.00
             620.19,330.00 594.03,330.00 594.03,330.00
             591.64,330.00 589.60,329.18 587.91,327.55
             586.22,325.90 585.38,323.89 585.38,321.50
             585.38,319.12 586.22,317.11 587.91,315.47
             589.60,313.82 591.64,313.00 594.03,313.00
             594.03,313.00 712.52,313.00 712.52,313.00
             714.91,313.00 716.95,313.82 718.64,315.47
             720.34,317.11 721.19,319.12 721.19,321.50
             721.19,323.89 720.34,325.90 718.64,327.55
             716.95,329.18 714.91,330.00 712.52,330.00
             712.52,330.00 681.14,330.00 681.14,330.00
             680.14,330.00 679.64,330.51 679.64,331.52
             679.64,331.52 679.64,361.41 679.64,361.41
             679.64,363.93 680.02,365.49 680.77,366.09
             681.52,366.70 683.29,367.00 686.08,367.00 Z
           M 849.14,300.86
           C 850.04,298.37 851.63,296.48 853.92,295.19
             855.52,294.29 857.16,293.84 858.86,293.84
             859.65,293.84 860.45,293.95 861.25,294.14
             863.74,294.73 865.58,296.13 866.77,298.33
             867.46,299.62 867.81,300.96 867.81,302.36
             867.81,303.26 867.61,304.20 867.22,305.20
             861.44,320.89 854.02,334.97 844.95,347.44
             844.36,348.23 844.21,349.12 844.52,350.11
             849.09,360.70 853.66,366.00 858.25,366.00
             861.14,366.00 863.04,360.17 863.94,348.52
             864.13,346.62 865.08,345.32 866.77,344.62
             867.46,344.34 868.16,344.19 868.86,344.19
             869.86,344.19 870.80,344.48 871.70,345.08
             874.19,346.67 876.08,348.71 877.38,351.20
             878.38,353.00 878.88,354.89 878.88,356.88
             878.88,357.48 878.82,358.08 878.72,358.67
             877.12,368.77 874.68,375.68 871.39,379.41
             868.11,383.13 863.23,385.00 856.77,385.00
             847.00,385.00 838.59,378.63 831.52,365.89
             831.02,365.09 830.47,365.04 829.88,365.75
             824.69,370.96 819.16,375.72 813.28,380.03
             811.49,381.24 809.55,381.84 807.45,381.84
             806.85,381.84 806.25,381.79 805.66,381.69
             802.97,381.29 800.68,379.99 798.78,377.78
             797.39,376.18 796.70,374.37 796.70,372.36
             796.70,371.96 796.70,371.56 796.70,371.16
             797.10,368.65 798.34,366.70 800.44,365.30
             808.41,359.98 815.62,353.76 822.09,346.64
             822.70,345.93 822.85,345.08 822.55,344.08
             818.07,328.33 814.78,308.65 812.69,285.05
             812.58,284.06 812.03,283.56 811.03,283.56
             811.03,283.56 769.66,283.56 769.66,283.56
             768.66,283.56 768.16,284.06 768.16,285.05
             768.16,285.05 768.16,298.50 768.16,298.50
             768.16,299.50 768.66,300.00 769.66,300.00
             769.66,300.00 792.97,300.00 792.97,300.00
             796.45,300.00 799.43,301.23 801.92,303.70
             804.41,306.16 805.66,309.12 805.66,312.58
             805.66,324.51 805.21,334.91 804.31,343.78
             803.61,350.19 802.47,354.43 800.88,356.50
             798.49,359.75 794.95,361.77 790.27,362.56
             788.27,362.86 785.39,363.00 781.61,363.00
             781.61,363.00 781.55,363.00 781.45,363.00
             779.07,363.00 776.93,362.18 775.03,360.53
             773.13,358.98 771.84,356.95 771.14,354.42
             770.94,353.75 770.84,353.12 770.84,352.53
             770.84,351.37 771.19,350.25 771.89,349.19
             772.98,347.64 774.48,346.86 776.38,346.86
             776.48,346.86 776.53,346.86 776.53,346.86
             778.22,346.95 779.66,347.00 780.86,347.00
             782.95,347.00 784.45,346.42 785.34,345.25
             786.63,343.49 787.53,334.56 788.03,318.47
             788.03,318.07 787.88,317.73 787.58,317.44
             787.29,317.15 786.94,317.00 786.53,317.00
             786.53,317.00 769.66,317.00 769.66,317.00
             768.66,317.00 768.11,317.50 768.02,318.48
             767.21,344.12 763.38,364.24 756.50,378.84
             755.51,381.13 753.72,382.48 751.12,382.88
             750.73,382.88 750.28,382.88 749.78,382.88
             747.79,382.88 746.00,382.23 744.41,380.94
             742.21,379.14 740.81,376.91 740.22,374.22
             739.91,373.22 739.77,372.22 739.77,371.22
             739.77,369.53 740.11,367.89 740.81,366.30
             746.29,353.63 749.03,335.06 749.03,310.58
             749.03,310.58 749.03,278.91 749.03,278.91
             749.03,275.31 750.30,272.25 752.84,269.72
             755.38,267.18 758.45,265.91 762.03,265.91
             762.03,265.91 809.84,265.91 809.84,265.91
             810.34,265.91 810.72,265.76 810.97,265.45
             811.22,265.15 811.34,264.80 811.34,264.41
             811.04,257.64 810.89,253.70 810.89,252.61
             810.89,250.12 811.79,247.93 813.58,246.03
             815.47,244.24 817.71,243.34 820.30,243.34
             822.98,243.34 825.25,244.27 827.09,246.11
             828.94,247.95 829.86,250.22 829.86,252.91
             829.86,256.49 829.96,260.32 830.17,264.41
             830.17,265.41 830.66,265.91 831.66,265.91
             831.66,265.91 852.12,265.91 852.12,265.91
             852.43,265.91 852.60,265.81 852.66,265.61
             852.71,265.41 852.63,265.21 852.42,265.00
             849.34,262.51 845.41,259.77 840.62,256.78
             838.93,255.69 837.98,254.15 837.78,252.16
             837.78,251.96 837.78,251.71 837.78,251.41
             837.78,249.81 838.38,248.42 839.58,247.22
             841.17,245.53 843.11,244.54 845.41,244.23
             845.91,244.14 846.41,244.09 846.91,244.09
             848.70,244.09 850.34,244.54 851.83,245.44
             855.71,247.73 859.25,249.97 862.44,252.16
             864.73,253.75 865.88,256.04 865.88,259.03
             865.88,261.32 865.08,263.37 863.48,265.16
             863.29,265.26 863.23,265.41 863.33,265.61
             863.43,265.81 863.58,265.91 863.78,265.91
             863.78,265.91 869.61,265.91 869.61,265.91
             872.10,265.91 874.21,266.80 875.95,268.59
             877.70,270.39 878.58,272.53 878.58,275.02
             878.58,277.51 877.70,279.62 875.95,281.38
             874.21,283.12 872.10,283.98 869.61,283.98
             869.61,283.98 832.86,283.98 832.86,283.98
             832.45,283.98 832.10,284.14 831.80,284.44
             831.50,284.73 831.36,285.07 831.36,285.47
             832.75,299.52 834.64,312.51 837.03,324.42
             837.13,324.62 837.31,324.75 837.56,324.80
             837.81,324.85 838.04,324.78 838.23,324.58
             842.52,316.95 846.15,309.04 849.14,300.86 Z" />
</svg>
